<svg id="bear" xmlns="http://www.w3.org/2000/svg" width="114.055" height="92.547" viewBox="0 0 114.055 92.547">
  <g id="Group_7533" data-name="Group 7533">
    <path id="Path_4314" data-name="Path 4314" d="M58.142,51.134c0,.114-.114.228-.228.114-.114,0-.114-.114-.114-.228s.114-.228.228-.114C58.142,50.906,58.142,51.02,58.142,51.134Z" transform="translate(2.56 -9.32)" stroke="#000" stroke-miterlimit="10" stroke-width="0.323"/>
    <path id="Path_4315" data-name="Path 4315" d="M55.742,50.934c0,.114-.114.228-.228.114-.114,0-.114-.114-.114-.228s.114-.228.228-.114C55.742,50.706,55.742,50.82,55.742,50.934Z" transform="translate(2.224 -9.348)" stroke="#000" stroke-miterlimit="10" stroke-width="0.323"/>
    <g id="Group_7532" data-name="Group 7532">
      <path id="Path_4316" data-name="Path 4316" d="M50.636,22.5h0A2.643,2.643,0,0,0,47.9,24.894a2.514,2.514,0,0,0,.684,1.71,2.69,2.69,0,0,0,1.824.8,2.643,2.643,0,0,0,2.736-2.394,2.514,2.514,0,0,0-.684-1.71A3.006,3.006,0,0,0,50.636,22.5Z" transform="translate(1.173 -13.292)"/>
      <path id="Path_4317" data-name="Path 4317" d="M58.036,22.8h0A2.643,2.643,0,0,0,55.3,25.194a2.514,2.514,0,0,0,.684,1.71,2.69,2.69,0,0,0,1.824.8,2.723,2.723,0,0,0,2.736-2.394,2.514,2.514,0,0,0-.684-1.71A2,2,0,0,0,58.036,22.8Z" transform="translate(2.21 -13.25)"/>
      <path id="Path_4318" data-name="Path 4318" d="M117.659,53.729c-.114,0-.228-.114-.342-.114-1.368-6.156-12.655-10.831-16.3-12.2-7.98-2.964-15.619-1.14-19.951.342-1.368-2.964-2.508-5.814-3.534-8.323-2.052-5.016-3.648-9.007-6.042-12.085a3.155,3.155,0,0,1,.114-.912,7.771,7.771,0,0,0,.57-.8c.228-.342.57-.57.684-.912a2.956,2.956,0,0,0,.228-2.736,2.282,2.282,0,0,0-1.6-1.482,2.445,2.445,0,0,0-2.28.57,4.789,4.789,0,0,0-1.6,3.078,16.633,16.633,0,0,0-4.9-1.71,15.046,15.046,0,0,0-8.551.57V16.9a3.76,3.76,0,0,0-2.28-2.28,2.3,2.3,0,0,0-1.938.228,2.357,2.357,0,0,0-.912,3.078,6.416,6.416,0,0,0,1.14,1.6l.228.228C47.2,23.061,45.607,28.42,43.9,34.12c-.684,2.28-1.368,4.674-2.28,6.954a27.2,27.2,0,0,0-18.7.114C18.359,42.9,7.984,47.459,6.5,53.273a.419.419,0,0,0-.342.114c-.912.342-1.482,1.14-1.254,1.824a2.045,2.045,0,0,0,.57.8,1.61,1.61,0,0,0,1.026.114c0,.114.114.342.114.456-.114,0-.114.114-.228.228a1.588,1.588,0,0,0-.456,2.28,1.623,1.623,0,0,0,2.28-.114l.228.228a3.737,3.737,0,0,0,0,1.14.96.96,0,0,0,.456.8,1.621,1.621,0,0,0,2.166-.684c.114-.114.114-.114.114-.228,2.85.57,6.156-1.14,9.691-2.964a34.418,34.418,0,0,1,6.384-2.85c1.6-.456,4.56-.114,7.068.456-9.235,15.847-11.515,27.818-6.954,36.482l-5.13,1.026c-.684-1.14-2.508-3.534-5.358-3.192l-.456.114-.228.342c-1.026,1.254.228,9.349,1.482,15.847l.114.684,44.235.8,45.033-.912.114-.684c1.6-6.5,3.42-14.479,2.508-15.847l-.342-.342h-.342c-2.85-.342-5.358,2.28-6.156,3.306l-3.762-.114c5.016-8.779,2.052-20.521-8.665-34.886-.57-.684-1.026-1.482-1.6-2.166,1.824-.456,5.928-1.14,7.866-.57a35.254,35.254,0,0,1,6.384,2.964c3.42,1.824,6.726,3.648,9.577,3.078,0,.114.114.114.114.228a1.621,1.621,0,0,0,2.166.684,2.045,2.045,0,0,0,.57-.8,1.9,1.9,0,0,0-.342-1.482c.114-.114.228-.114.228-.228h0a2.369,2.369,0,0,0,1.368.57,1.407,1.407,0,0,0,.912-.456c.57-.57.342-1.6-.456-2.28l-.228-.228a.685.685,0,0,0,.114-.456,1.524,1.524,0,0,0,1.026-.114.857.857,0,0,0,.57-.8C119.255,54.755,118.685,53.957,117.659,53.729ZM64.988,41.3c-.684.228-2.622-.8-3.762-1.482a1.222,1.222,0,0,0-.684-.228,3.321,3.321,0,0,0-.912.228h.114A12.885,12.885,0,0,1,56.1,41.3c-1.254.114-1.026-3.762-.228-4.218.684-.342,3.192,1.14,4.218,1.71.114,0,.342.114.456.114s.228-.114.342-.114c.912-.684,3.306-2.28,4.218-1.824C66.356,37.54,66.128,40.96,64.988,41.3Zm0-9.919h-.114a4.918,4.918,0,0,1-3.648-1.6,2.385,2.385,0,0,1-.456-.684,5.184,5.184,0,0,1-4.1,2.052h-.114a5.055,5.055,0,0,1-5.016-5.13,5.2,5.2,0,0,1,5.358-4.9,4.918,4.918,0,0,1,3.648,1.6A2.385,2.385,0,0,1,61,23.4a5.022,5.022,0,0,1,4.1-2.052h.114a5.055,5.055,0,0,1,5.016,5.13A5.167,5.167,0,0,1,64.988,31.384Z" transform="translate(-4.856 -14.423)"/>
    </g>
  </g>
</svg>
