<svg id="bear-down" xmlns="http://www.w3.org/2000/svg" width="55.184" height="72.1" viewBox="0 0 55.184 72.1">
  <g id="Group_7529" data-name="Group 7529" transform="translate(0)">
    <path id="Path_4306" data-name="Path 4306" d="M55.288,72.26c0-.072.071-.144.143-.072.072,0,.072.072.072.144s-.072.144-.143.072C55.288,72.4,55.217,72.332,55.288,72.26Z" transform="translate(-27.474 -23.786)" stroke="#000" stroke-miterlimit="10" stroke-width="0.323"/>
    <path id="Path_4307" data-name="Path 4307" d="M57.6,72.46c0-.072.071-.144.143-.072.071,0,.071.072.071.144s-.071.144-.143.072A.252.252,0,0,1,57.6,72.46Z" transform="translate(-28.141 -23.842)" stroke="#000" stroke-miterlimit="10" stroke-width="0.323"/>
    <g id="Group_7528" data-name="Group 7528" transform="translate(0)">
      <path id="Path_4308" data-name="Path 4308" d="M60,89.8a1.964,1.964,0,0,0-2,1.729,1.693,1.693,0,0,0,.5,1.224,2.409,2.409,0,0,0,1.358.648,1.964,1.964,0,0,0,2-1.729,1.693,1.693,0,0,0-.5-1.224A1.756,1.756,0,0,0,60,89.8Z" transform="translate(-28.256 -28.72)"/>
      <path id="Path_4309" data-name="Path 4309" d="M51.3,89.5h0a1.969,1.969,0,0,0-2,1.8,1.586,1.586,0,0,0,.5,1.224,1.946,1.946,0,0,0,1.358.576h.071a1.856,1.856,0,0,0,1.93-1.8,1.586,1.586,0,0,0-.5-1.224A1.946,1.946,0,0,0,51.3,89.5Z" transform="translate(-25.776 -28.636)"/>
      <path id="Path_4310" data-name="Path 4310" d="M69.307,74.579c3.36-3.169,2.145-12.245,1.644-15.054a21.33,21.33,0,0,0-6.935-11.885c4.647-6.987,11.8-18.439,2.359-31.044a3.126,3.126,0,0,0-.429-.5l1.215-1.729a4.621,4.621,0,0,0,2.717.5,2.3,2.3,0,0,0,1.5-1.08c.357-.576.858-1.369-9.366-8.427l-.5-.36-4.147,5.258c-8.794-3.529-20.377-3.1-27.169-.5L26.409,5l-.5.36c-10.224,7.059-9.724,7.851-9.366,8.427a2.3,2.3,0,0,0,1.5,1.08,4.508,4.508,0,0,0,2.717-.5l1.358,1.945c-6.077,8.211-5.791,18.151.858,28.235.786,1.152,1.5,2.377,2.288,3.673a20.135,20.135,0,0,0-6.077,11.308c-.572,3.6-1.573,12.029,1.644,15.054,0,.072-.071.144-.071.216a1.206,1.206,0,0,0,.715,1.513.875.875,0,0,0,.715-.144,1.567,1.567,0,0,0,.5-.648c.143,0,.214.072.357.072V75.8c.143.72.643,1.224,1.215,1.152a.981.981,0,0,0,.572-.36,1.428,1.428,0,0,0,.214-1.08h0c.071,0,.214-.072.286-.072.214.36.429.648.786.72a.841.841,0,0,0,.715-.072,1.264,1.264,0,0,0,.357-1.657c0-.072-.071-.144-.071-.216,1.5-1.657,1.573-4.394,1.716-7.347a24,24,0,0,1,.572-5.186,7.894,7.894,0,0,1,1.358-2.449c.286.72.572,1.369.858,2.089,1.787,4.322,3.217,7.779,5.434,10.228a1.651,1.651,0,0,1-.214.5c-.071.144-.286.36-.429.576a3.955,3.955,0,0,0-.5.648,2.4,2.4,0,0,0-.143,2.089,1.925,1.925,0,0,0,1.215,1.152,1.955,1.955,0,0,0,1.644-.36,4.1,4.1,0,0,0,1.215-2.233A11.475,11.475,0,0,0,43.5,75.155a11.166,11.166,0,0,0,6.292-.432.07.07,0,0,0,.071.072A2.876,2.876,0,0,0,51.5,76.452a1.657,1.657,0,0,0,1.43-.144,1.833,1.833,0,0,0,.715-2.3,3.169,3.169,0,0,0-.858-1.152l-.143-.144c2.359-2.449,3.575-6.483,4.79-10.66.357-1.224.786-2.521,1.215-3.817a10.588,10.588,0,0,1,2.216,3.6,23.5,23.5,0,0,1,.572,5.186c.143,2.881.214,5.69,1.716,7.347a.266.266,0,0,0-.071.216,1.214,1.214,0,0,0,.357,1.657.841.841,0,0,0,.715.072,1.857,1.857,0,0,0,.786-.72c.072,0,.143.072.286.072h0a1.364,1.364,0,0,0,.214,1.08.728.728,0,0,0,.572.36h.143a1.028,1.028,0,0,0,.5-.144,1.6,1.6,0,0,0,.572-.936V75.8a.641.641,0,0,0,.357-.072,1.567,1.567,0,0,0,.5.648.875.875,0,0,0,.715.144,1.206,1.206,0,0,0,.715-1.513C69.307,74.723,69.307,74.651,69.307,74.579ZM41.852,56.572c.5-.144,1.93.648,2.788,1.08a.829.829,0,0,0,.5.144,1.556,1.556,0,0,0,.643-.216h-.071a11.677,11.677,0,0,1,2.717-1.152c.858-.072.786,2.809.143,3.1-.5.216-2.359-.864-3.074-1.3a.427.427,0,0,0-.286-.072.54.54,0,0,0-.286.144c-.715.5-2.431,1.657-3.074,1.369C40.851,59.381,41.066,56.86,41.852,56.572Zm6.22,14.982H48a3.569,3.569,0,0,1-2.717-1.224,1.292,1.292,0,0,1-.357-.5,3.785,3.785,0,0,1-3.074,1.513h-.071a3.569,3.569,0,0,1-2.717-1.224,3.925,3.925,0,0,1-1-2.593,3.8,3.8,0,0,1,3.861-3.6H42a3.569,3.569,0,0,1,2.717,1.224,1.292,1.292,0,0,1,.357.5,3.923,3.923,0,0,1,3.146-1.513,3.569,3.569,0,0,1,2.717,1.224,3.924,3.924,0,0,1,1,2.593A3.852,3.852,0,0,1,48.072,71.554Z" transform="translate(-16.397 -5)"/>
    </g>
  </g>
</svg>
