<svg id="bear-sm" xmlns="http://www.w3.org/2000/svg" width="39.687" height="63.112" viewBox="0 0 39.687 63.112">
  <path id="Path_4325" data-name="Path 4325" d="M.126,0A.124.124,0,0,1,.252.124.126.126,0,0,1,.125.249.124.124,0,0,1,0,.125.126.126,0,0,1,.126,0Z" transform="translate(20.486 24.902) rotate(-73.794)" stroke="#000" stroke-width="0.323"/>
  <path id="Path_4326" data-name="Path 4326" d="M.126,0A.124.124,0,0,1,.252.124.126.126,0,0,1,.125.249.124.124,0,0,1,0,.125.126.126,0,0,1,.126,0Z" transform="translate(19.025 24.807) rotate(-73.793)" stroke="#000" stroke-width="0.323"/>
  <g id="Group_7530" data-name="Group 7530">
    <path id="Path_4311" data-name="Path 4311" d="M58.071,10.7a1.71,1.71,0,0,0-1,.315.909.909,0,0,0-.374.63c0,.5.623,1.009,1.371,1.009.81,0,1.433-.378,1.433-.946a.868.868,0,0,0-.312-.63,1.561,1.561,0,0,0-1.059-.378Z" transform="translate(-35.775 -7.019)"/>
    <path id="Path_4312" data-name="Path 4312" d="M50.671,10.5c-.748,0-1.371.441-1.371.946a.868.868,0,0,0,.312.63,1.561,1.561,0,0,0,1.059.378c.748,0,1.433-.378,1.433-.946,0-.5-.623-1.009-1.433-1.009Z" transform="translate(-32.987 -6.945)"/>
    <path id="Path_4313" data-name="Path 4313" d="M60.248,34.893a59.71,59.71,0,0,1-3.739-7.5A14.674,14.674,0,0,0,62.055,18c.436-2.711,1.122-8.952-1.184-11.221,0-.063.062-.126.062-.189a.892.892,0,0,0-.561-1.135.871.871,0,0,0-.561.063.845.845,0,0,0-.374.441c-.062,0-.187-.063-.249-.063V5.705c-.125-.567-.5-.946-.935-.82a.721.721,0,0,0-.436.315,1.154,1.154,0,0,0-.125.82h0c-.062,0-.125.063-.187.063-.187-.189-.374-.441-.623-.5a.675.675,0,0,0-.5,0,.938.938,0,0,0-.249,1.261.221.221,0,0,0,.062.126c-1.122,1.2-1.184,3.278-1.246,5.485a18.593,18.593,0,0,1-.436,3.846,6.906,6.906,0,0,1-1.371,2.333,49.268,49.268,0,0,0-3.49-8.069A1.813,1.813,0,0,0,49.779,9.3a1.565,1.565,0,0,0-1.869-.883,2.292,2.292,0,0,1,.374,1.261h0a2.7,2.7,0,0,1-2.8,2.333h-.125a2.99,2.99,0,0,1-2.306-1.072,2.976,2.976,0,0,1-2.243.946h-.125a2.9,2.9,0,0,1-1.932-.693,2.311,2.311,0,0,1-.872-1.765,2.651,2.651,0,0,1,2.929-2.333,2.99,2.99,0,0,1,2.306,1.072l.374-.378a3.033,3.033,0,0,1,1.932-.567,3.638,3.638,0,0,1,.872.126,8.781,8.781,0,0,0-2.243-.883A7.464,7.464,0,0,0,37.877,7.47a1.34,1.34,0,0,0-1.683.567A1.507,1.507,0,0,0,36.07,9.3c-1.683,2.333-2.68,5.926-3.552,9.456a9.922,9.922,0,0,1-1.433-2.4,15.2,15.2,0,0,1-.374-3.846c-.062-2.206-.187-4.224-1.246-5.485,0-.063.062-.063.062-.126a.954.954,0,0,0-.249-1.261.855.855,0,0,0-.561,0,1,1,0,0,0-.561.567c-.062,0-.125-.063-.187-.063a1.154,1.154,0,0,0-.125-.82,1.118,1.118,0,0,0-.436-.315c-.436-.063-.81.315-.935.82V6.02a.371.371,0,0,0-.249.063.664.664,0,0,0-.374-.441.6.6,0,0,0-.561-.063c-.436.126-.623.567-.561,1.135a.233.233,0,0,0,.062.189c-2.493,2.4-1.558,9.141-1.184,11.221.935,5.106,4.736,8.511,6.294,9.708a46.632,46.632,0,0,1-2.243,4.728c-3.24,6.493-6.668,13.239-.623,22.254a14.56,14.56,0,0,0,6.481,5.169l2.119,4.728a2.794,2.794,0,0,0-1.5,2.585v.252l.187.126a6.136,6.136,0,0,0,2.306.252c1.309,0,2.742-.126,2.742-.126,2.43-.693,4.051-3.656,4.113-3.782l.062-.189-.436-2.017h1.5l-.374,2.143.062.126c.062.126,1.683,3.089,4.113,3.782.062,0,4.424.315,5.048-.126l.187-.189V67.3a2.794,2.794,0,0,0-1.5-2.585L54.2,60.173a10.179,10.179,0,0,0,2.867-1.639C61.931,54.625,65.42,43.719,60.248,34.893ZM45.791,17.809c-.374.189-1.5-.378-2.119-.756a.663.663,0,0,0-.374-.126,1.357,1.357,0,0,0-.5.189h0a4.426,4.426,0,0,1-1.869,1.072c-.685.063-.748-2.269-.249-2.585.374-.189,1.807.567,2.368.883.062,0,.187.063.249.063a.47.47,0,0,0,.249-.126c.5-.441,1.683-1.513,2.243-1.324C46.414,15.414,46.414,17.557,45.791,17.809Z" transform="translate(-23.122 -4.861)"/>
  </g>
</svg>
