<svg id="bear-arm-up" xmlns="http://www.w3.org/2000/svg" width="320.687" height="510.112" viewBox="0 0 320.687 510.112">
  <path id="Path_4325" data-name="Path 4325" d="M1.021,0A1,1,0,0,1,2.036,1,1.021,1.021,0,0,1,1.015,2.016,1,1,0,0,1,0,1.011,1.021,1.021,0,0,1,1.021,0Z" transform="translate(165.529 201.28) rotate(-73.794)" stroke="#000" stroke-width="0.323"/>
  <path id="Path_4326" data-name="Path 4326" d="M1.021,0A1,1,0,0,1,2.036,1,1.021,1.021,0,0,1,1.015,2.016,1,1,0,0,1,0,1.011,1.021,1.021,0,0,1,1.021,0Z" transform="translate(153.728 200.512) rotate(-73.793)" stroke="#000" stroke-width="0.323"/>
  <g id="Group_7530" data-name="Group 7530">
    <path id="Path_4311" data-name="Path 4311" d="M67.778,10.7a13.819,13.819,0,0,0-8.057,2.548c-1.007,1.019-3.021,2.548-3.021,5.1,0,4.076,5.035,8.153,11.078,8.153,6.546,0,11.581-3.057,11.581-7.643a7.018,7.018,0,0,0-2.518-5.1C74.827,11.719,71.3,10.7,68.281,10.7Z" transform="translate(112.38 19.05)"/>
    <path id="Path_4312" data-name="Path 4312" d="M60.378,10.5c-6.042,0-11.078,3.567-11.078,7.643a7.018,7.018,0,0,0,2.518,5.1c2.014,2.038,5.539,3.057,8.56,3.057,6.042,0,11.581-3.057,11.581-7.643,0-4.076-5.035-8.153-11.581-8.153Z" transform="translate(82.518 18.231)"/>
    <path id="Path_4313" data-name="Path 4313" d="M323.121,247.6c-11.078-18.344-20.645-38.216-30.212-60.636,15.106-11.719,38.772-36.178,44.815-75.922,3.525-21.91,9.064-72.355-9.567-90.7,0-.51.5-1.019.5-1.529,1.007-4.586-1.007-8.153-4.532-9.172-1.511-.51-3.021,0-4.532.51a6.83,6.83,0,0,0-3.021,3.567c-.5,0-1.511-.51-2.014-.51V11.682c-1.007-4.586-4.028-7.643-7.553-6.624a5.829,5.829,0,0,0-3.525,2.548,9.332,9.332,0,0,0-1.007,6.624h0c-.5,0-1.007.51-1.511.51-1.511-1.529-3.021-3.567-5.035-4.076a5.456,5.456,0,0,0-4.028,0c-3.021,1.529-4.028,6.115-2.014,10.191a1.785,1.785,0,0,0,.5,1.019c-9.064,9.681-9.567,26.5-10.071,44.33-.5,10.7-1.007,21.91-3.525,31.082-1.007,4.586-5.035,11.21-11.078,18.853-9.064-24.458-17.624-47.9-28.2-65.222,1.511-3.567,2.014-7.134,1.007-10.191-2.518-5.6-8.057-8.662-15.106-7.134a18.531,18.531,0,0,1,3.021,10.191h0c-.5,10.191-10.574,18.853-22.659,18.853h-1.007a24.158,24.158,0,0,1-18.631-8.662c-4.028,4.586-10.574,7.643-18.127,7.643H165.01a23.446,23.446,0,0,1-15.61-5.6,18.683,18.683,0,0,1-7.05-14.267c.5-10.7,10.574-19.363,23.666-18.853a24.158,24.158,0,0,1,18.631,8.662l3.021-3.057c4.532-3.057,10.071-5.1,15.61-4.586a29.392,29.392,0,0,1,7.049,1.019A70.941,70.941,0,0,0,192.2,17.8c-20.142-4.076-36.758-1.529-49.85,8.153-5.539-2.038-11.078,0-13.6,4.586a12.185,12.185,0,0,0-1.007,10.191c-13.6,18.853-21.652,47.9-28.7,76.431C93,109,88.976,102.381,87.465,97.795c-2.518-9.172-3.021-20.382-3.021-31.082-.5-17.834-1.511-34.139-10.071-44.33,0-.51.5-.51.5-1.019,2.014-4.076,1.007-8.153-2.014-10.191a6.909,6.909,0,0,0-4.532,0c-2.014.51-3.525,2.548-4.532,4.586-.5,0-1.007-.51-1.511-.51a9.332,9.332,0,0,0-1.007-6.624,9.036,9.036,0,0,0-3.525-2.548c-3.525-.51-6.546,2.548-7.553,6.624V14.23a3,3,0,0,0-2.014.51,5.369,5.369,0,0,0-3.021-3.567,4.845,4.845,0,0,0-4.532-.51c-3.525,1.019-5.035,4.586-4.532,9.172a1.886,1.886,0,0,0,.5,1.529c-20.142,19.363-12.588,73.884-9.567,90.7,7.553,41.273,38.269,68.788,50.857,78.47a376.963,376.963,0,0,1-18.127,38.216c-26.184,52.483-53.879,107-5.035,179.869C66.82,426.45,84.444,440.717,107.1,450.4l17.12,38.216c-5.539,3.057-12.085,9.172-12.085,20.891v2.038l1.511,1.019c2.014,1.529,10.071,2.038,18.631,2.038,10.574,0,22.156-1.019,22.156-1.019,19.638-5.605,32.73-29.554,33.233-30.573l.5-1.529-3.525-16.305h12.085L193.712,482.5l.5,1.019c.5,1.019,13.6,24.968,33.234,30.573.5,0,35.751,2.548,40.787-1.019l1.511-1.529v-2.038c0-11.72-6.546-17.834-12.085-20.891l16.617-36.687c9.567-4.076,17.624-8.153,23.163-13.248C336.717,407.087,364.915,318.936,323.121,247.6ZM206.3,109.514c-3.021,1.529-12.085-3.057-17.12-6.115a5.357,5.357,0,0,0-3.021-1.019c-1.511,0-4.028,1.529-4.028,1.529h0c-4.028,3.567-11.581,8.662-15.106,8.662-5.539.51-6.042-18.344-2.014-20.891,3.021-1.529,14.6,4.586,19.134,7.134.5,0,1.511.51,2.014.51a3.8,3.8,0,0,0,2.014-1.019c4.028-3.567,13.6-12.229,18.127-10.7C211.336,90.152,211.336,107.476,206.3,109.514Z" transform="translate(-23.122 -4.861)"/>
  </g>
</svg>
