<svg xmlns="http://www.w3.org/2000/svg" xmlns:xlink="http://www.w3.org/1999/xlink" width="102" height="102" viewBox="0 0 102 102">
  <defs>
    <clipPath id="clip-path">
      <circle id="Ellipse_133" data-name="Ellipse 133" cx="51" cy="51" r="51" transform="translate(512 1137)" fill="none"/>
    </clipPath>
  </defs>
  <g id="bear-avatar" transform="translate(-512 -1137)" clip-path="url(#clip-path)">
    <g id="noun_Sitting_Bearbusier_1374916" data-name="noun Sitting Bearbusier 1374916">
      <g id="Groupe_7533" data-name="Groupe 7533">
        <path id="Tracé_4314" data-name="Tracé 4314" d="M567.825,1218.412c0,.181-.169.363-.338.181-.169,0-.169-.181-.169-.363s.169-.363.338-.181C567.825,1218.046,567.825,1218.227,567.825,1218.412Z" fill="#707070" stroke="#000" stroke-miterlimit="10" stroke-width="0.323"/>
        <path id="Tracé_4315" data-name="Tracé 4315" d="M563.768,1218.05c0,.181-.169.363-.338.181-.169,0-.169-.181-.169-.363s.169-.363.338-.181C563.768,1217.684,563.768,1217.865,563.768,1218.05Z" fill="#707070" stroke="#000" stroke-miterlimit="10" stroke-width="0.323"/>
        <g id="Groupe_7532" data-name="Groupe 7532">
          <path id="Tracé_4316" data-name="Tracé 4316" d="M554.638,1166.565h0a4.025,4.025,0,0,0-4.057,3.807,4.156,4.156,0,0,0,1.014,2.719,3.877,3.877,0,0,0,2.7,1.269,4.027,4.027,0,0,0,4.057-3.807,4.152,4.152,0,0,0-1.014-2.719A4.323,4.323,0,0,0,554.638,1166.565Z" fill="#707070"/>
          <path id="Tracé_4317" data-name="Tracé 4317" d="M567.149,1167.109h0a4.025,4.025,0,0,0-4.057,3.807,4.156,4.156,0,0,0,1.014,2.719,3.877,3.877,0,0,0,2.7,1.269,3.9,3.9,0,0,0,3.043-6.526A2.883,2.883,0,0,0,567.149,1167.109Z" fill="#707070"/>
          <path id="Tracé_4318" data-name="Tracé 4318" d="M645.083,1214.421c-.169,0-.338-.181-.507-.181-2.029-9.789-18.765-17.221-24.175-19.4-11.834-4.713-23.161-1.813-29.585.544-2.029-4.714-3.719-9.245-5.241-13.234-3.043-7.975-5.41-14.32-8.96-19.215a5.376,5.376,0,0,1,.169-1.45,12.37,12.37,0,0,0,.845-1.269c.338-.544.845-.906,1.014-1.45a5,5,0,0,0,.338-4.35,3.428,3.428,0,0,0-5.748-1.45,7.821,7.821,0,0,0-2.367,4.894,23.6,23.6,0,0,0-7.269-2.719c-4.9-.906-9.129-.725-12.679.906v-.181a5.8,5.8,0,0,0-3.381-3.625,3.216,3.216,0,0,0-2.874.363,3.9,3.9,0,0,0-1.351,4.9A10.211,10.211,0,0,0,545,1160.04l.338.363c-4.734,5.257-7.1,13.776-9.636,22.84-1.014,3.625-2.029,7.432-3.381,11.057a37.786,37.786,0,0,0-27.725.181c-6.763,2.721-22.147,9.97-24.342,19.215a.6.6,0,0,0-.507.181c-1.352.544-2.2,1.813-1.86,2.9a3.267,3.267,0,0,0,.845,1.269,2.243,2.243,0,0,0,1.521.181c0,.181.169.544.169.725-.169,0-.169.181-.338.363-1.183,1.087-1.522,2.538-.676,3.625.845.905,2.2.905,3.381-.181l.338.363a6.4,6.4,0,0,0,0,1.813,1.549,1.549,0,0,0,.676,1.269c1.014.724,2.367.181,3.212-1.088.169-.181.169-.181.169-.363,4.226.906,9.129-1.813,14.37-4.713a49.354,49.354,0,0,1,9.467-4.532c2.367-.725,6.762-.181,10.481.725-13.694,25.2-17.075,44.23-10.312,58.006l-7.608,1.631c-1.014-1.814-3.719-5.62-7.946-5.077l-.676.181-.338.545c-1.521,1.994.338,14.864,2.2,25.2l.169,1.087,65.594,1.269,66.777-1.45.169-1.087c2.367-10.333,5.072-23.021,3.719-25.2l-.507-.545h-.507c-4.226-.544-7.946,3.625-9.129,5.258l-5.579-.181c7.438-13.958,3.043-32.628-12.848-55.469-.845-1.087-1.521-2.357-2.367-3.444,2.7-.724,8.791-1.813,11.665-.905,3.043.905,6.255,2.9,9.467,4.712,5.072,2.9,9.974,5.8,14.2,4.894,0,.181.169.181.169.363.845,1.269,2.2,1.813,3.212,1.088a3.253,3.253,0,0,0,.845-1.269,3.2,3.2,0,0,0-.507-2.357c.169-.181.338-.181.338-.363h0a3.382,3.382,0,0,0,2.029.906,2.035,2.035,0,0,0,1.352-.725c.845-.906.507-2.538-.676-3.625l-.338-.363a1.155,1.155,0,0,0,.169-.725,2.121,2.121,0,0,0,1.521-.181,1.359,1.359,0,0,0,.845-1.269C647.45,1216.052,646.6,1214.783,645.083,1214.421Zm-78.1-19.758c-1.014.363-3.888-1.269-5.579-2.357a1.729,1.729,0,0,0-1.014-.363,4.635,4.635,0,0,0-1.352.363h.169c-1.521.906-4.4,2.357-5.41,2.357-1.86.181-1.521-5.982-.338-6.707,1.014-.544,4.734,1.813,6.255,2.719.169,0,.507.181.676.181s.338-.181.507-.181c1.352-1.088,4.9-3.625,6.255-2.9,1.856.906,1.518,6.344-.172,6.888Zm0-15.77h-.169a7.077,7.077,0,0,1-5.41-2.538,3.845,3.845,0,0,1-.676-1.088,7.527,7.527,0,0,1-6.086,3.263h-.169a7.083,7.083,0,0,1-5.416-2.538,8.117,8.117,0,0,1-2.029-5.619,7.945,7.945,0,0,1,7.946-7.8,7.071,7.071,0,0,1,5.41,2.538,3.819,3.819,0,0,1,.676,1.088,7.3,7.3,0,0,1,6.086-3.263h.169a7.071,7.071,0,0,1,5.41,2.538,8.115,8.115,0,0,1,2.032,5.623,7.911,7.911,0,0,1-7.777,7.79Z" fill="#707070"/>
        </g>
      </g>
    </g>
  </g>
</svg>
