<svg xmlns="http://www.w3.org/2000/svg" xmlns:xlink="http://www.w3.org/1999/xlink" width="264" height="206" viewBox="0 0 264 206">
  <defs>
    <filter id="Path_4234" x="113.179" y="3" width="30" height="126.499" filterUnits="userSpaceOnUse">
      <feOffset dy="3" input="SourceAlpha"/>
      <feGaussianBlur stdDeviation="3" result="blur"/>
      <feFlood flood-opacity="0.161"/>
      <feComposite operator="in" in2="blur"/>
      <feComposite in="SourceGraphic"/>
    </filter>
  </defs>
  <g id="chart1" transform="translate(-59 -223)">
    <g id="Group_7435" data-name="Group 7435" transform="translate(-375.321 -1167.223)">
      <g id="Groupe_7435" data-name="Groupe 7435">
        <path id="Tracé_4229" data-name="Tracé 4229" d="M516.062,1414.306l22.282,49.958c-14.835,7.162-25.486,18.131-30.471,33.887-4.942,15.623-3.472,30.841,4.446,45.38l-47.456,26.735c-.846-1.587-1.691-3.031-2.4-4.538-1.26-2.67-2.422-5.385-3.651-8.07a100.961,100.961,0,0,1-5.731-17.919,109.163,109.163,0,0,1-2.724-23.308c-.342-12.083,1.775-23.766,5.357-35.236.6-1.932,1.413-3.8,2.044-5.721A84.773,84.773,0,0,1,467,1456.686a101.3,101.3,0,0,1,7.861-11.018,112.417,112.417,0,0,1,31.379-26.472C509.413,1417.431,512.74,1415.951,516.062,1414.306Z" fill="#409da6" stroke="#fff" stroke-width="2"/>
        <path id="Tracé_4230" data-name="Tracé 4230" d="M585.048,1464.145a56.485,56.485,0,0,0-22.5-4.873,58.85,58.85,0,0,0-22.58,4.277l-22.3-50.008c30.1-11.973,59.939-11.624,89.783,1.03C599.948,1431.172,592.526,1447.6,585.048,1464.145Z" fill="#f8b03c" stroke="#fff" stroke-width="2"/>
        <path id="Tracé_4231" data-name="Tracé 4231" d="M586.668,1464.858l22.395-49.555c29.156,14.168,49.092,36.386,59.983,66.9L616.8,1498.48a55.627,55.627,0,0,0-11.669-19.9A57.124,57.124,0,0,0,586.668,1464.858Z" fill="#fb7777" stroke="#fff" stroke-width="2"/>
        <path id="Tracé_4232" data-name="Tracé 4232" d="M617.741,1500.055l51.752-16.127c.492,1.7,1,3.35,1.444,5.013a113.529,113.529,0,0,1,3.741,28.918,106.843,106.843,0,0,1-6.152,35.875c-1.056,3.058-2.3,6.059-3.618,9.018-1.38,3.107-2.945,6.132-4.434,9.191a3.079,3.079,0,0,1-.292.4c-.3-.156-.579-.288-.844-.444q-22.878-13.374-45.761-26.739c-.67-.39-.745-.667-.409-1.392a71.192,71.192,0,0,0,3.9-8.979,58.69,58.69,0,0,0,1.667-29.717C618.388,1503.439,618.082,1501.794,617.741,1500.055Z" fill="#ff1e1e" stroke="#fff" stroke-width="2"/>
      </g>
      <g transform="matrix(1, 0, 0, 1, 434.32, 1390.22)" filter="url(#Path_4234)">
        <path id="Path_4234-2" data-name="Path 4234" d="M6,0H6a6,6,0,0,1,6,6V108.5H0V6A6,6,0,0,1,6,0Z" transform="translate(122.18 9)" fill="#fff"/>
      </g>
      <g id="Ellipse_1" data-name="Ellipse 1">
        <circle id="Ellipse_1-2" data-name="Ellipse 1" cx="75" cy="75" r="75" transform="translate(487.5 1440.815)" fill="#ededed" stroke="#fff" stroke-width="2"/>
        <path id="Path_4235" data-name="Path 4235" d="M74.5,0A74.522,74.522,0,1,1,0,74.5,74.5,74.5,0,0,1,74.5,0Z" transform="translate(488 1441.315)" fill="#ededed" stroke="#fff" stroke-width="2"/>
      </g>
    </g>
    <text id="_0" data-name="0" transform="translate(75 412)" fill="#707070" font-size="16" font-family="Montserrat-Bold, Montserrat" font-weight="700"><tspan x="-5.432" y="0">0</tspan></text>
    <rect id="Rectangle_4842" data-name="Rectangle 4842" width="130" height="55" transform="translate(122 374)" fill="#ededed"/>
    <g id="Path_4340" data-name="Path 4340" transform="translate(135 297)" fill="#37c6b3">
      <path d="M 52.5 104 C 45.54710006713867 104 38.80271530151367 102.6384887695313 32.45418548583984 99.95328521728516 C 26.32171440124512 97.35947418212891 20.81399917602539 93.64600372314453 16.08399963378906 88.91600036621094 C 11.35401439666748 84.18601226806641 7.640528678894043 78.67828369140625 5.046714305877686 72.54581451416016 C 2.361514329910278 66.19728851318359 1 59.45289993286133 1 52.5 C 1 45.54710006713867 2.361514329910278 38.80271530151367 5.046714305877686 32.45418548583984 C 7.640528678894043 26.32172775268555 11.35401439666748 20.81399917602539 16.08399963378906 16.08399963378906 C 20.81399917602539 11.35401439666748 26.32172775268555 7.640528678894043 32.45418548583984 5.046714305877686 C 38.80271530151367 2.361514329910278 45.54710006713867 1 52.5 1 C 59.45289993286133 1 66.19728851318359 2.361514329910278 72.54581451416016 5.046714305877686 C 78.67828369140625 7.640528678894043 84.18601226806641 11.35401439666748 88.91600036621094 16.08399963378906 C 93.64600372314453 20.81399917602539 97.35947418212891 26.32171440124512 99.95328521728516 32.45418548583984 C 102.6384887695313 38.80271530151367 104 45.54710006713867 104 52.5 C 104 59.45289993286133 102.6384887695313 66.19728851318359 99.95328521728516 72.54581451416016 C 97.35947418212891 78.67828369140625 93.64600372314453 84.18601226806641 88.91600036621094 88.91600036621094 C 84.18601226806641 93.64600372314453 78.67828369140625 97.35947418212891 72.54581451416016 99.95328521728516 C 66.19728851318359 102.6384887695313 59.45289993286133 104 52.5 104 Z" stroke="none"/>
      <path d="M 52.5 2 C 45.68165969848633 2 39.06833648681641 3.334938049316406 32.84373474121094 5.967720031738281 C 26.83045959472656 8.5111083984375 21.42958831787109 12.15263366699219 16.79110717773438 16.79110717773438 C 12.15263366699219 21.42958831787109 8.5111083984375 26.83045959472656 5.967720031738281 32.84373474121094 C 3.334938049316406 39.06833648681641 2 45.68165969848633 2 52.5 C 2 59.31834030151367 3.334938049316406 65.93165588378906 5.967720031738281 72.15626525878906 C 8.5111083984375 78.16954040527344 12.15263366699219 83.57041931152344 16.79110717773438 88.20889282226563 C 21.42958831787109 92.84736633300781 26.83045959472656 96.4888916015625 32.84373474121094 99.03227996826172 C 39.06833648681641 101.6650619506836 45.68165969848633 103 52.5 103 C 59.31834030151367 103 65.93165588378906 101.6650619506836 72.15626525878906 99.03227996826172 C 78.16954040527344 96.4888916015625 83.57041931152344 92.84736633300781 88.20889282226563 88.20889282226563 C 92.84736633300781 83.57041931152344 96.4888916015625 78.16954040527344 99.03227996826172 72.15626525878906 C 101.6650619506836 65.93165588378906 103 59.31834030151367 103 52.5 C 103 45.68165969848633 101.6650619506836 39.06833648681641 99.03227996826172 32.84373474121094 C 96.4888916015625 26.83045959472656 92.84736633300781 21.42958831787109 88.20889282226563 16.79110717773438 C 83.57041931152344 12.15263366699219 78.16954040527344 8.5111083984375 72.15626525878906 5.967720031738281 C 65.93165588378906 3.334938049316406 59.31834030151367 2 52.5 2 M 52.5 0 C 81.49494934082031 0 105 23.50504302978516 105 52.5 C 105 81.49494934082031 81.49494934082031 105 52.5 105 C 23.50504302978516 105 0 81.49494934082031 0 52.5 C 0 23.50504302978516 23.50504302978516 0 52.5 0 Z" stroke="none" fill="#fff"/>
    </g>
    <text id="_20_Medium" data-name="20
Medium" transform="translate(188 350)" fill="#fff" font-size="27" font-family="Montserrat-Bold, Montserrat" font-weight="700"><tspan x="-17.104" y="0">20</tspan><tspan font-size="16"><tspan x="-34.52" y="22">Medium</tspan></tspan></text>
    <text id="_8" data-name="8" transform="translate(65 324)" fill="#707070" font-size="16" font-family="Montserrat-Bold, Montserrat" font-weight="700" opacity="0.8"><tspan x="-5.28" y="0">8</tspan></text>
    <text id="_16" data-name="16" transform="translate(135 238)" fill="#707070" font-size="16" font-family="Montserrat-Bold, Montserrat" font-weight="700" opacity="0.8"><tspan x="-8.232" y="0">16</tspan></text>
    <text id="_24" data-name="24" transform="translate(240 238)" fill="#707070" font-size="16" font-family="Montserrat-Bold, Montserrat" font-weight="700" opacity="0.8"><tspan x="-10.152" y="0">24</tspan></text>
    <text id="_32" data-name="32" transform="translate(313 324)" fill="#707070" font-size="16" font-family="Montserrat-Bold, Montserrat" font-weight="700" opacity="0.8"><tspan x="-9.416" y="0">32</tspan></text>
    <text id="_40" data-name="40" transform="translate(304 412)" fill="#707070" font-size="16" font-family="Montserrat-Bold, Montserrat" font-weight="700" opacity="0.8"><tspan x="-10.944" y="0">40</tspan></text>
  </g>
</svg>
