<svg xmlns="http://www.w3.org/2000/svg" width="46.047" height="61.396" viewBox="0 0 46.047 61.396">
  <path id="download" d="M26.861,16.308V0H2.878A2.871,2.871,0,0,0,0,2.878V58.518A2.871,2.871,0,0,0,2.878,61.4H43.169a2.871,2.871,0,0,0,2.878-2.878V19.186H29.739A2.886,2.886,0,0,1,26.861,16.308Zm9.167,25.345L24.466,53.13a2.045,2.045,0,0,1-2.883,0L10.021,41.654a1.918,1.918,0,0,1,1.349-3.281h7.816V28.78a1.918,1.918,0,0,1,1.919-1.919h3.837a1.918,1.918,0,0,1,1.919,1.919v9.593h7.816A1.919,1.919,0,0,1,36.028,41.654Zm9.179-29.063L33.468.839A2.876,2.876,0,0,0,31.43,0H30.7V15.349H46.047v-.731A2.869,2.869,0,0,0,45.208,12.591Z" fill="#fff"/>
</svg>
