<svg id="green-lock" xmlns="http://www.w3.org/2000/svg" width="29.75" height="40.646" viewBox="0 0 29.75 40.646">
  <path id="noun_password_1199277" d="M41.745,19.733h-.422V13.508a10.432,10.432,0,0,0-20.863,0v6.225h-.422a4,4,0,0,0-4.022,3.987V39.826a4,4,0,0,0,4.022,3.987H41.745a4,4,0,0,0,4.022-3.987V23.72A4.005,4.005,0,0,0,41.745,19.733ZM24.4,13.508a6.492,6.492,0,0,1,12.984,0v6.225H24.4Zm8.17,20.078v4.187a1.678,1.678,0,0,1-3.356,0V33.586a3.944,3.944,0,1,1,3.356,0Z" transform="translate(-16.017 -3.167)" fill="#37c6b3"/>
</svg>
