<svg id="happy-bear2" xmlns="http://www.w3.org/2000/svg" width="205.969" height="276.535" viewBox="0 0 205.969 276.535">
  <g id="noun_Goofy_Bearbusier_1374913" data-name="noun_Goofy Bearbusier_1374913" transform="translate(0 45.539)">
    <g id="Group_7511" data-name="Group 7511">
      <circle id="Ellipse_120" data-name="Ellipse 120" cx="0.461" cy="0.461" r="0.461" transform="translate(109.923 103.188) rotate(-73.787)" stroke="#000" stroke-miterlimit="10" stroke-width="0.323"/>
      <circle id="Ellipse_121" data-name="Ellipse 121" cx="0.461" cy="0.461" r="0.461" transform="translate(104.076 102.72) rotate(-73.787)" stroke="#000" stroke-miterlimit="10" stroke-width="0.323"/>
      <g id="Group_7510" data-name="Group 7510">
        <path id="Path_4295" data-name="Path 4295" d="M214.689,85.687h-.71c-3.787-11.066-25.8-18.212-35.269-20.748a53.8,53.8,0,0,0-29.588.231l-.71-2.075c-4.024-10.835-7.574-20.287-11.6-27.895a9.073,9.073,0,0,0,1.894-2.305,5.814,5.814,0,0,0,.473-4.38,4.9,4.9,0,0,0-3.077-3,7.367,7.367,0,0,0-5.444.231l.71.692a7.652,7.652,0,0,1,.947,5.994c-.947,3.689-4.734,5.994-9.231,5.994a14.2,14.2,0,0,1-3.077-.461A10.48,10.48,0,0,1,112.67,32.2a10.747,10.747,0,0,1-6.154,1.844,14.2,14.2,0,0,1-3.077-.461,11.981,11.981,0,0,1-6.391-3.919,8.325,8.325,0,0,1-1.657-6.916c1.184-4.611,6.864-7.147,12.309-5.533,3.314.922,6.154,3,7.338,5.533a5.976,5.976,0,0,1,1.657-.922,12.114,12.114,0,0,1,7.575-.461,11.024,11.024,0,0,1,3.787,1.614,26.964,26.964,0,0,0-13.965-7.147c-7.574-1.383-13.729-.922-19.173,1.614l-.237-.231a8.146,8.146,0,0,0-6.154-2.305,5.1,5.1,0,0,0-3.551,2.305,5.03,5.03,0,0,0,1.184,6.455H86.4C80.715,29.9,77.165,39.119,73.851,50.646a22.3,22.3,0,0,1-3.077-5.533c-1.184-4.15-1.184-8.991-1.42-13.6-.237-7.838-.71-14.985-4.734-19.365,0-.231.237-.231.237-.461.947-1.844.473-3.689-.947-4.38a2.679,2.679,0,0,0-1.894,0,3.145,3.145,0,0,0-2.13,2.075c-.237,0-.473-.231-.71-.231h0a4.3,4.3,0,0,0-.473-3A6.617,6.617,0,0,0,56.572,5a3.251,3.251,0,0,0-1.894.461A4.071,4.071,0,0,0,53.021,8v.692a1.453,1.453,0,0,0-.947.231,2.457,2.457,0,0,0-1.42-1.614,1.942,1.942,0,0,0-1.894-.231c-1.42.461-2.367,2.075-1.894,4.15a.833.833,0,0,0,.237.692c-9.231,8.53-5.681,32.505-4.5,39.883,3.077,16.6,14.2,27.895,21.3,33.428-.237.692-.473,1.614-.71,2.305-2.6,7.377-6.391,14.524-10.178,21.67-8.285,15.676-16.569,32.044-13.965,50.948L26.51,170.985a8.645,8.645,0,0,0-11.125-2.305,6.914,6.914,0,0,0-3.551,4.15c-1.184,3.689.237,8.991,4.024,14.754,7.1,11.3,21.067,9.913,21.54,9.682l14.676-7.377c12.545,16.368,37.4,24.9,66.987,23.515l5.207,12.91S127.346,236,141.074,236h2.367c13.255-.922,16.333-3,17.516-4.38a2.556,2.556,0,0,0,.71-2.536c-1.42-8.069-6.154-10.6-8.758-11.066l-2.367-10.374a42.755,42.755,0,0,0,10.888-5.763c17.753-13.832,30.771-52.562,11.6-84.145a246.634,246.634,0,0,1-12.545-23.515c5.207-1.383,9.7-1.844,12.072-1.614a59.538,59.538,0,0,1,13.255,4.38c7.338,3,14.2,5.763,20.12,4.15,0,.231.237.231.237.461,1.42,1.614,3.314,2.075,4.5.922a2.321,2.321,0,0,0,.947-1.614,4.354,4.354,0,0,0-.947-2.766c.237-.231.237-.461.473-.461h0c1.657,1.153,3.787,1.153,4.5-.231.947-1.383.237-3.227-1.42-4.38-.237-.231-.237-.231-.473-.231,0-.231.237-.692.237-.922a5.78,5.78,0,0,0,2.13-.461,2.671,2.671,0,0,0,1.184-1.614A3.236,3.236,0,0,0,214.689,85.687ZM115.747,60.1c-1.42.231-4.734-3-6.391-4.841a6.445,6.445,0,0,0-1.184-.922,4.825,4.825,0,0,0-1.894,0h.237c-2.367.692-6.628,1.614-8.048,1.383-2.367-.461.237-8.53,2.13-8.991,1.42-.231,5.681,3.919,7.338,5.763.237.231.473.231.71.461h.947c2.13-.922,7.811-3.227,9.468-1.844C120.718,52.721,118.351,59.867,115.747,60.1Z" transform="translate(-11.428 -5)"/>
        <path id="Path_4296" data-name="Path 4296" d="M52.854,12.3c-2.075,0-3.689.922-3.919,2.305a3.054,3.054,0,0,0,.692,2.536,5.881,5.881,0,0,0,3.458,2.075c2.766.692,5.3-.231,5.763-2.075s-1.383-3.919-4.15-4.611A5.076,5.076,0,0,0,52.854,12.3Z" transform="translate(39.882 4.529)"/>
        <path id="Path_4297" data-name="Path 4297" d="M61.834,14.431A5.076,5.076,0,0,0,59.99,14.2a8.191,8.191,0,0,0-2.305.461c-.461.231-1.614.692-1.844,1.844-.461,1.844,1.383,3.919,4.15,4.611s5.3-.231,5.763-2.075a2.211,2.211,0,0,0-.461-2.075A4.551,4.551,0,0,0,61.834,14.431Z" transform="translate(49.332 7.009)"/>
      </g>
    </g>
  </g>
  <g id="noun_Party_Hat_2166549" data-name="noun_Party Hat_2166549" transform="translate(89.8 -1.988) rotate(16)">
    <path id="Path_4274" data-name="Path 4274" d="M4.147,44.747a3.7,3.7,0,0,0,2.363,5.29c1.688.45,3.489.788,5.177,1.125,18.007-2.926,28.361-14.968,32.3-20.6L39.148,21A50.751,50.751,0,0,1,6.623,39.795ZM37.91,28.315a1.576,1.576,0,1,1-1.576,1.576A1.61,1.61,0,0,1,37.91,28.315ZM31.495,34.73a1.576,1.576,0,1,1-1.576,1.576A1.539,1.539,0,0,1,31.495,34.73Zm-9.229,5.515a1.576,1.576,0,1,1-1.576,1.576A1.539,1.539,0,0,1,22.266,40.245ZM11.125,43.509a1.576,1.576,0,1,1-1.576,1.576A1.476,1.476,0,0,1,11.125,43.509Z" transform="translate(0 2.509)" fill="#f1114b"/>
    <path id="Path_4275" data-name="Path 4275" d="M7.5,38.435c15.643-2.814,25.322-12.492,30.049-18.57L33.16,11.2A31.805,31.805,0,0,1,15.491,22.792Zm23.521-19.47a1.576,1.576,0,1,1-1.576,1.576A1.61,1.61,0,0,1,31.021,18.965Zm-8.553,4.952a1.576,1.576,0,1,1-1.576,1.576A1.539,1.539,0,0,1,22.468,23.917Zm-4.952,8.328a1.576,1.576,0,1,1-1.576-1.576A1.61,1.61,0,0,1,17.516,32.246Z" transform="translate(0.474 1.279)" fill="#f1114b"/>
    <path id="Path_4276" data-name="Path 4276" d="M47.2,48.707a3.75,3.75,0,0,0,2.476-5.29L43.6,31.6A51.977,51.977,0,0,1,16.7,50.732,93.673,93.673,0,0,0,47.2,48.707ZM42.36,39.478a1.576,1.576,0,1,1-1.576,1.576A1.539,1.539,0,0,1,42.36,39.478ZM36.282,44.43a1.576,1.576,0,1,1-1.576,1.576A1.61,1.61,0,0,1,36.282,44.43Z" transform="translate(1.627 3.838)" fill="#f1114b"/>
    <path id="Path_4277" data-name="Path 4277" d="M26.154,1,15.8,21.258A28.819,28.819,0,0,0,30.768,10.229ZM24.578,12.592a1.576,1.576,0,0,1,0-3.151A1.391,1.391,0,0,1,26.154,10.9,1.635,1.635,0,0,1,24.578,12.592Z" transform="translate(1.515)" fill="#f1114b"/>
  </g>
</svg>
