<svg id="happy-bear" xmlns="http://www.w3.org/2000/svg" width="93.095" height="107.2" viewBox="0 0 93.095 107.2">
  <g id="Group_7527" data-name="Group 7527">
    <circle id="Ellipse_122" data-name="Ellipse 122" cx="0.214" cy="0.214" r="0.214" transform="translate(49.676 47.887) rotate(-73.787)" stroke="#000" stroke-miterlimit="10" stroke-width="0.323"/>
    <circle id="Ellipse_123" data-name="Ellipse 123" cx="0.214" cy="0.214" r="0.214" transform="translate(47.034 47.67) rotate(-73.787)" stroke="#000" stroke-miterlimit="10" stroke-width="0.323"/>
    <g id="Group_7526" data-name="Group 7526">
      <path id="Path_4303" data-name="Path 4303" d="M103.3,42.445h-.321c-1.712-5.135-11.661-8.452-15.941-9.629a23.707,23.707,0,0,0-13.373.107l-.321-.963A115.118,115.118,0,0,0,68.1,19.015a4.189,4.189,0,0,0,.856-1.07,2.763,2.763,0,0,0,.214-2.033,2.244,2.244,0,0,0-1.391-1.391,3.25,3.25,0,0,0-2.461.107l.321.321a3.632,3.632,0,0,1,.428,2.782A4.046,4.046,0,0,1,61.9,20.513,6.261,6.261,0,0,1,60.5,20.3a4.763,4.763,0,0,1-3.317-2.675,4.769,4.769,0,0,1-2.782.856,6.262,6.262,0,0,1-1.391-.214,5.4,5.4,0,0,1-2.889-1.819,3.942,3.942,0,0,1-.749-3.21c.535-2.14,3.1-3.317,5.563-2.568a5.171,5.171,0,0,1,3.317,2.568,2.682,2.682,0,0,1,.749-.428A5.342,5.342,0,0,1,62.43,12.6a4.915,4.915,0,0,1,1.712.749,12.079,12.079,0,0,0-6.312-3.317,13.6,13.6,0,0,0-8.666.749l-.107-.107A3.629,3.629,0,0,0,46.275,9.6a2.3,2.3,0,0,0-1.6,1.07,2.376,2.376,0,0,0,.535,3h.107c-2.568,2.889-4.172,7.168-5.67,12.517a10.437,10.437,0,0,1-1.391-2.568A30.065,30.065,0,0,1,37.61,17.3c-.107-3.638-.321-6.954-2.14-8.987,0-.107.107-.107.107-.214a1.45,1.45,0,0,0-.428-2.033,1.181,1.181,0,0,0-.856,0,1.438,1.438,0,0,0-.963.963c-.107,0-.214-.107-.321-.107h0A2.04,2.04,0,0,0,32.8,5.535,2.966,2.966,0,0,0,31.832,5a1.439,1.439,0,0,0-.856.214,1.892,1.892,0,0,0-.749,1.177v.321a.643.643,0,0,0-.428.107,1.131,1.131,0,0,0-.642-.749.858.858,0,0,0-.856-.107,1.552,1.552,0,0,0-.856,1.926.393.393,0,0,0,.107.321c-4.172,3.958-2.568,15.085-2.033,18.509,1.391,7.7,6.419,12.945,9.629,15.513-.107.321-.214.749-.321,1.07a76.874,76.874,0,0,1-4.6,10.057C26.483,60.633,22.739,68.229,23.915,77l-5.67,5.028a3.844,3.844,0,0,0-5.028-1.07,3.187,3.187,0,0,0-1.6,1.926c-.535,1.712.107,4.172,1.819,6.847,3.21,5.242,9.522,4.6,9.736,4.493L29.8,90.8c5.67,7.6,16.9,11.554,30.277,10.913l2.354,5.991s1.391,4.493,7.6,4.493H71.1c5.991-.428,7.382-1.391,7.917-2.033a1.207,1.207,0,0,0,.321-1.177c-.642-3.745-2.782-4.921-3.958-5.135l-1.07-4.814a19.164,19.164,0,0,0,4.921-2.675c8.024-6.419,13.908-24.393,5.242-39.05A115.51,115.51,0,0,1,78.8,46.4a17.311,17.311,0,0,1,5.456-.749,26.422,26.422,0,0,1,5.991,2.033c3.317,1.391,6.419,2.675,9.094,1.926,0,.107.107.107.107.214.642.749,1.5.963,2.033.428a1.083,1.083,0,0,0,.428-.749,2.056,2.056,0,0,0-.428-1.284c.107-.107.107-.214.214-.214h0c.749.535,1.712.535,2.033-.107a1.521,1.521,0,0,0-.642-2.033c-.107-.107-.107-.107-.214-.107,0-.107.107-.321.107-.428a2.555,2.555,0,0,0,.963-.214,1.238,1.238,0,0,0,.535-.749A1.5,1.5,0,0,0,103.3,42.445ZM58.579,30.57c-.642.107-2.14-1.391-2.889-2.247a2.927,2.927,0,0,0-.535-.428,2.125,2.125,0,0,0-.856,0h.107a13.038,13.038,0,0,1-3.638.642c-1.07-.214.107-3.958.963-4.172.642-.107,2.568,1.819,3.317,2.675.107.107.214.107.321.214H55.8c.963-.428,3.531-1.5,4.279-.856C60.826,27.146,59.756,30.463,58.579,30.57Z" transform="translate(-11.428 -5)"/>
      <path id="Path_4304" data-name="Path 4304" d="M50.721,12.3c-.963,0-1.712.428-1.819,1.07a1.417,1.417,0,0,0,.321,1.177,2.729,2.729,0,0,0,1.6.963c1.284.321,2.461-.107,2.675-.963s-.642-1.819-1.926-2.14A2.356,2.356,0,0,0,50.721,12.3Z" transform="translate(-8.812 -4.49)"/>
      <path id="Path_4305" data-name="Path 4305" d="M58.584,14.307a2.356,2.356,0,0,0-.856-.107,3.8,3.8,0,0,0-1.07.214c-.214.107-.749.321-.856.856-.214.856.642,1.819,1.926,2.14s2.461-.107,2.675-.963a1.026,1.026,0,0,0-.214-.963A2.112,2.112,0,0,0,58.584,14.307Z" transform="translate(-8.331 -4.357)"/>
    </g>
  </g>
</svg>
