<svg xmlns="http://www.w3.org/2000/svg" width="18" height="18" viewBox="0 0 18 18">
  <g id="i" transform="translate(-12 -250)">
    <circle id="i-2" data-name="i" cx="9" cy="9" r="9" transform="translate(12 250)" fill="#37c6b3"/>
    <path id="noun_Information_321411" d="M49.283,21.935l-.144.591q-.65.257-1.037.391a2.736,2.736,0,0,1-.9.134,1.8,1.8,0,0,1-1.224-.384,1.242,1.242,0,0,1-.437-.975,3.449,3.449,0,0,1,.033-.469q.033-.24.106-.542l.542-1.917q.072-.275.122-.522a2.268,2.268,0,0,0,.049-.449.7.7,0,0,0-.152-.512.856.856,0,0,0-.579-.145,1.518,1.518,0,0,0-.431.066c-.147.044-.273.086-.379.125L45,16.735q.532-.217,1.018-.371a3.046,3.046,0,0,1,.921-.154,1.752,1.752,0,0,1,1.206.378,1.254,1.254,0,0,1,.423.981c0,.083-.009.23-.029.44a2.942,2.942,0,0,1-.109.578L47.887,20.5a5.071,5.071,0,0,0-.119.526,2.707,2.707,0,0,0-.053.446.643.643,0,0,0,.17.519.959.959,0,0,0,.59.138,1.7,1.7,0,0,0,.446-.069A2.487,2.487,0,0,0,49.283,21.935Zm.137-8.016a1.117,1.117,0,0,1-.377.85,1.284,1.284,0,0,1-.908.352,1.3,1.3,0,0,1-.913-.352,1.143,1.143,0,0,1,0-1.7,1.348,1.348,0,0,1,1.822,0A1.128,1.128,0,0,1,49.42,13.918Z" transform="translate(-26.012 241.188)" fill="#fff"/>
  </g>
</svg>
