<svg xmlns="http://www.w3.org/2000/svg" width="6.25" height="14.14" viewBox="0 0 6.25 14.14">
  <path id="i2" d="M50.914,25.325l-.2.808q-.889.351-1.419.534a3.745,3.745,0,0,1-1.231.184,2.458,2.458,0,0,1-1.674-.525,1.7,1.7,0,0,1-.6-1.334,4.716,4.716,0,0,1,.044-.642q.045-.328.144-.741l.741-2.622q.1-.377.167-.714a3.1,3.1,0,0,0,.067-.614.95.95,0,0,0-.207-.7,1.172,1.172,0,0,0-.793-.2,2.078,2.078,0,0,0-.589.09c-.2.06-.374.117-.519.171l.2-.808q.728-.3,1.393-.507A4.168,4.168,0,0,1,47.7,17.5a2.4,2.4,0,0,1,1.649.517,1.714,1.714,0,0,1,.579,1.342c0,.114-.013.315-.04.6a4.023,4.023,0,0,1-.148.791L49,23.357a6.936,6.936,0,0,0-.162.719,3.7,3.7,0,0,0-.072.61A.879.879,0,0,0,49,25.4a1.312,1.312,0,0,0,.807.188,2.332,2.332,0,0,0,.61-.094A3.4,3.4,0,0,0,50.914,25.325ZM51.1,14.362a1.528,1.528,0,0,1-.516,1.163,1.758,1.758,0,0,1-1.243.481,1.777,1.777,0,0,1-1.249-.481,1.563,1.563,0,0,1,0-2.33,1.844,1.844,0,0,1,2.492,0A1.543,1.543,0,0,1,51.1,14.362Z" transform="translate(-44.851 -12.711)" fill="#fff"/>
</svg>
