<svg xmlns="http://www.w3.org/2000/svg" width="17.748" height="17.748" viewBox="0 0 17.748 17.748">
  <path id="icon4" d="M7.7-.023a7.7,7.7,0,1,0,0,15.39,7.606,7.606,0,0,0,3.65-.9,2.2,2.2,0,0,0,.286.286l2.2,2.2A2.243,2.243,0,1,0,17,13.784l-2.2-2.2a2.2,2.2,0,0,0-.352-.286,7.592,7.592,0,0,0,.967-3.65,7.7,7.7,0,0,0-7.7-7.7Zm0,2.2a5.471,5.471,0,0,1,5.5,5.5,5.513,5.513,0,0,1-1.451,3.782l-.066.066a2.2,2.2,0,0,0-.286.286A5.5,5.5,0,0,1,7.673,13.19a5.5,5.5,0,1,1,0-10.993Z" transform="translate(0 0.045)" fill="#fff"/>
</svg>
