<svg id="icon-shose" xmlns="http://www.w3.org/2000/svg" width="49.801" height="26.49" viewBox="0 0 49.801 26.49">
  <path id="Path_4328" data-name="Path 4328" d="M19.407,977.752A7.129,7.129,0,0,0,18,980.915a5.827,5.827,0,0,1-.944,2,2.2,2.2,0,0,1-1.871.795,5.831,5.831,0,0,1-3.725-1.491c-.832-.617-1.719-1.7-2.682-1.722a4.629,4.629,0,0,0-3.311,2.021,7.353,7.353,0,0,0-1.722,3.561c-.246,3.163-.5,6.329-.745,9.49A4.22,4.22,0,0,0,5.2,998.9a9.459,9.459,0,0,0,4.321,1.325c4.185.236,8.029-.391,10.066-1.673,1.649.841,3.356,1.895,4.768,2.584a25.072,25.072,0,0,0,10.911,2.716,31.217,31.217,0,0,0,11.622-2.4,16.358,16.358,0,0,0,4.156-2.418,4.139,4.139,0,0,0,1.755-2.981,6.993,6.993,0,0,0-.877-3.461,4.856,4.856,0,0,0-2.252-1.921c-1.878-.845-4.424-1.062-7.748-1.656-7.934-3.849-13.653-7.231-21.126-11.576a1.508,1.508,0,0,0-1.391.315Zm-8.593,5.3a6.9,6.9,0,0,0,4.371,1.722,3.4,3.4,0,0,0,2.682-1.176,5.24,5.24,0,0,0,.828-1.408c5.973,2.085,11.848,5.905,17.169,8.248a3.771,3.771,0,0,0,1.407.431,3.052,3.052,0,0,0,2.765-1.623c.5.246.975.5,1.49.745a3.793,3.793,0,0,1-1.291,1.822,5.374,5.374,0,0,1-3.328.911,30.089,30.089,0,0,1-7.6-2.683c-3.177-1.4-6.458-2.881-8.758-3.147-2.93-.6-6.041.224-8.758,0a1.625,1.625,0,0,1-.993-.58,29.525,29.525,0,0,1-2.632-4.62c1.149-.391,1.912.769,2.649,1.358ZM4.49,990.09a10.16,10.16,0,0,0,7.483,2.948c2.641-.048,5.032-.837,6.887-.845a6.928,6.928,0,0,1,4.868,1.789,18.572,18.572,0,0,1,2.351,2.865,13.707,13.707,0,0,0-3.278,2.285c-.826-.471-1.618-.936-2.417-1.374a1.654,1.654,0,0,0-.993-.265c-2.836-.484-4.933-1.578-7.235-2.087-1.326-.347-2.744-.452-3.874-.662a10.014,10.014,0,0,1-4.04-1.54ZM34.506,995.9a24.923,24.923,0,0,1,10.613,1.921c-3.705,1.6-6.932,2.018-12.947,1.838a4.224,4.224,0,0,0-2.93-.729,6.021,6.021,0,0,0-3.212,1.805c-.791-.329-1.526-.7-2.235-1.076C26.532,997.222,30.458,996.054,34.506,995.9Z" transform="translate(-3 -977.362)" fill="#fff"/>
</svg>
