<svg id="icon-person" xmlns="http://www.w3.org/2000/svg" width="45" height="47" viewBox="0 0 45 47">
  <path id="noun_meditation_2626810" d="M22.942,9.015A1.383,1.383,0,0,1,23.8,7.3a24.376,24.376,0,0,1,3.54-.858,1.358,1.358,0,0,1,.429,2.682,19.572,19.572,0,0,0-3.057.751,1.485,1.485,0,0,1-.483.054A1.274,1.274,0,0,1,22.942,9.015ZM34.1,9.176a19.572,19.572,0,0,1,3.057.751,1.4,1.4,0,0,0,1.716-.912,1.419,1.419,0,0,0-.858-1.77,19.472,19.472,0,0,0-3.486-.858,1.43,1.43,0,0,0-1.609,1.126A1.462,1.462,0,0,0,34.1,9.176Zm15.661,14A1.433,1.433,0,0,0,51.1,24.194a.913.913,0,0,0,.375-.054,1.377,1.377,0,0,0,.965-1.716,19.888,19.888,0,0,0-1.287-3.379,1.367,1.367,0,1,0-2.467,1.18A19.4,19.4,0,0,1,49.76,23.175Zm-7.026-10.3a17.759,17.759,0,0,1,2.36,2.092,1.465,1.465,0,0,0,1.019.429,1.377,1.377,0,0,0,.965-.375,1.361,1.361,0,0,0,.054-1.931,23.19,23.19,0,0,0-2.682-2.414,1.378,1.378,0,0,0-1.931.268A1.314,1.314,0,0,0,42.734,12.877ZM15.7,15.291a1.343,1.343,0,0,0,.965-.429,28.634,28.634,0,0,1,2.36-2.092,1.378,1.378,0,0,0-1.663-2.2,22.706,22.706,0,0,0-2.735,2.36,1.316,1.316,0,0,0,.054,1.931A1.34,1.34,0,0,0,15.7,15.291ZM51.959,28.163a1.414,1.414,0,0,0-1.448,1.287v.107a21.214,21.214,0,0,1-.375,3.164,1.326,1.326,0,0,0,1.073,1.609,2.323,2.323,0,0,1,.268.054,1.33,1.33,0,0,0,1.341-1.073,26.332,26.332,0,0,0,.483-3.594v-.107A1.459,1.459,0,0,0,51.959,28.163Zm-2.253,9.922a1.386,1.386,0,0,0-1.877.483,17.2,17.2,0,0,1-1.824,2.574,1.363,1.363,0,0,0,.161,1.931,1.375,1.375,0,0,0,1.931-.161,29.176,29.176,0,0,0,2.092-2.95A1.34,1.34,0,0,0,49.706,38.085Zm-12.551,5.1c-.215-.375,3.54-2.414,4.184-3.7.751-1.395-1.555-9.386-2.36-11.21-.268-.59-.751-1.126-3.111-1.609s-2.574-1.18-2.574-1.18a1.644,1.644,0,0,1-.215-.912,1.445,1.445,0,0,1,.268-.8,7.131,7.131,0,0,0,1.663-4.4c0-2.682-1.716-3.808-4.184-3.808s-4.237,1.126-4.184,3.808a6.713,6.713,0,0,0,1.663,4.4,1.053,1.053,0,0,1,.268.8,1.9,1.9,0,0,1-.215.912s-.215.59-2.574,1.18-2.843,1.019-3.111,1.609c-.858,1.824-3.111,9.815-2.36,11.21.644,1.287,4.4,3.325,4.184,3.7-.268.429-8.1,3.7-9.172,4.559-1.019.751-1.448,5.524,1.555,5.632,1.716.054,13.516-1.931,14-1.931.429,0,12.282,1.984,14,1.931,2.95-.054,2.521-4.827,1.555-5.632C45.254,46.881,37.424,43.61,37.156,43.181Zm-26.978-19.2a.913.913,0,0,0,.375.054,1.434,1.434,0,0,0,1.341-.965,27.87,27.87,0,0,1,1.126-2.95,1.367,1.367,0,1,0-2.467-1.18,18.3,18.3,0,0,0-1.287,3.379A1.38,1.38,0,0,0,10.177,23.979Zm5.31,17a17.342,17.342,0,0,1-1.77-2.628A1.381,1.381,0,1,0,11.3,39.694a26.928,26.928,0,0,0,2.038,3,1.49,1.49,0,0,0,1.073.536,1.315,1.315,0,0,0,.858-.322A1.369,1.369,0,0,0,15.487,40.982Zm-4.023-8.528a20.408,20.408,0,0,1-.375-3.164,1.422,1.422,0,0,0-1.448-1.341A1.388,1.388,0,0,0,8.3,29.4a20.534,20.534,0,0,0,.429,3.594,1.377,1.377,0,0,0,1.341,1.126h.268A1.427,1.427,0,0,0,11.464,32.454Z" transform="translate(-8.3 -6.372)" fill="#fff"/>
</svg>
