<svg id="icon-z" xmlns="http://www.w3.org/2000/svg" width="60.517" height="47.301" viewBox="0 0 60.517 47.301">
  <path id="Path_4327" data-name="Path 4327" d="M73.727,38.133c0-5.026-4.911-9.1-10.97-9.1a13.349,13.349,0,0,0-1.793.121,7.653,7.653,0,0,0,.048-.853c0-5.027-4.911-9.1-10.97-9.1a11.67,11.67,0,0,0-9.175,4.111,13.266,13.266,0,0,0-1.8-.121c-5.426,0-9.933,3.269-10.814,7.561-3.771,1.44-6.389,4.6-6.389,8.272,0,5.026,4.911,9.1,10.97,9.1,0,5.026,4.912,9.1,10.971,9.1a12.9,12.9,0,0,0,4.062-.645,12.039,12.039,0,0,0,8.155,3.015c6.059,0,10.971-4.075,10.971-9.1a7.787,7.787,0,0,0-.933-3.677C70.506,45.649,73.727,42.2,73.727,38.133ZM39.059,41.648a1.021,1.021,0,0,1,.64.258.635.635,0,0,1,.16.534.7.7,0,0,1-.279.514.959.959,0,0,1-.683.124l-6.1-.691a1.384,1.384,0,0,1-.9-.385.95.95,0,0,1-.23-.782.85.85,0,0,1,.084-.289,1.154,1.154,0,0,1,.167-.239q.1-.108.274-.273c.116-.11.218-.207.3-.287L37.973,34.9l-4.146-.47a.981.981,0,0,1-.636-.267.641.641,0,0,1-.164-.531.683.683,0,0,1,.281-.5.949.949,0,0,1,.68-.127l5.345.606q1.039.119.929,1.086a1.385,1.385,0,0,1-.257.718,9.075,9.075,0,0,1-.8.812l-2.286,2.168-2.836,2.691Zm8.48.962a1.019,1.019,0,0,1,.64.257.63.63,0,0,1,.16.534.7.7,0,0,1-.279.514.957.957,0,0,1-.683.123l-6.1-.692a1.384,1.384,0,0,1-.9-.385.956.956,0,0,1-.23-.782.822.822,0,0,1,.085-.289,1.065,1.065,0,0,1,.167-.238q.1-.109.274-.273t.3-.286l5.482-5.228-4.146-.471a.977.977,0,0,1-.635-.267.641.641,0,0,1-.164-.531.688.688,0,0,1,.281-.5.951.951,0,0,1,.68-.127l5.347.607q1.037.119.928,1.085a1.4,1.4,0,0,1-.256.719,9.256,9.256,0,0,1-.8.812l-5.122,4.859Zm8.48.962a1.02,1.02,0,0,1,.64.256.634.634,0,0,1,.16.535.692.692,0,0,1-.279.513.966.966,0,0,1-.683.124l-6.1-.693a1.38,1.38,0,0,1-.9-.385.95.95,0,0,1-.229-.782.847.847,0,0,1,.084-.289,1.15,1.15,0,0,1,.167-.237c.067-.073.159-.164.274-.274l.306-.286,5.482-5.228-4.147-.47a.982.982,0,0,1-.635-.267.642.642,0,0,1-.164-.531.687.687,0,0,1,.28-.5.959.959,0,0,1,.68-.127l5.346.607q1.038.117.928,1.085a1.378,1.378,0,0,1-.256.718,9.106,9.106,0,0,1-.8.812l-5.122,4.86Zm7.914-3.784a.832.832,0,0,1-.091.285,1.054,1.054,0,0,1-.156.233c-.054.058-.127.129-.219.212s-.2.18-.339.3l-3.61,3.219,3.429.39a.9.9,0,0,1,.606.267.657.657,0,0,1,.154.527.622.622,0,0,1-.263.458.933.933,0,0,1-.653.114l-4.744-.538a1.107,1.107,0,0,1-.722-.3.77.77,0,0,1,.045-1.057q.2-.207.813-.755.648-.576,1.179-1.041t.985-.872q.455-.405.756-.69t.488-.49l-2.6-.3a2.639,2.639,0,0,1-.8-.188q-.265-.128-.219-.537a.607.607,0,0,1,.263-.457.879.879,0,0,1,.613-.112l4.019.456a1.823,1.823,0,0,1,.837.26A.611.611,0,0,1,63.934,39.788Z" transform="translate(-13.21 -19.199)" fill="#fff"/>
  <circle id="Ellipse_126" data-name="Ellipse 126" cx="3.616" cy="3.616" r="3.616" transform="translate(13.391 33.484)" fill="#fff"/>
  <circle id="Ellipse_127" data-name="Ellipse 127" cx="2.493" cy="2.493" r="2.493" transform="translate(7.282 40.716)" fill="#fff"/>
  <circle id="Ellipse_128" data-name="Ellipse 128" cx="2.046" cy="2.046" r="2.046" transform="translate(0 43.208)" fill="#fff"/>
</svg>
