<svg xmlns="http://www.w3.org/2000/svg" width="21.214" height="16.5" viewBox="0 0 21.214 16.5">
  <path id="icon5" d="M4.125,2.25A4.123,4.123,0,0,0,0,6.375v8.25a4.125,4.125,0,0,0,8.25,0V6.375A4.123,4.123,0,0,0,4.125,2.25ZM5.893,10.5H2.357V6.375a1.768,1.768,0,0,1,3.536,0Zm5.145-1.094a.3.3,0,0,0-.453.029,5.858,5.858,0,0,0,8.187,8.187.3.3,0,0,0,.029-.453Zm8.464-.7a5.872,5.872,0,0,0-7.6-.586.3.3,0,0,0-.029.453l7.764,7.764a.3.3,0,0,0,.453-.029,5.867,5.867,0,0,0-.586-7.6Z" transform="translate(0 -2.25)" fill="#fff"/>
</svg>
