<svg xmlns="http://www.w3.org/2000/svg" width="21.003" height="16.333" viewBox="0 0 21.003 16.333">
  <path id="icon1" d="M10.222,6.491,3.5,12.027V18a.583.583,0,0,0,.583.583l4.086-.011a.583.583,0,0,0,.58-.583V14.5a.583.583,0,0,1,.583-.583h2.334a.583.583,0,0,1,.583.583V17.99a.583.583,0,0,0,.583.585l4.084.011A.583.583,0,0,0,17.5,18v-5.98L10.78,6.491A.444.444,0,0,0,10.222,6.491Zm10.619,3.763L17.793,7.741V2.691a.438.438,0,0,0-.438-.438H15.313a.438.438,0,0,0-.438.438V5.339L11.611,2.653a1.75,1.75,0,0,0-2.224,0l-9.229,7.6A.438.438,0,0,0,.1,10.87L1.029,12a.438.438,0,0,0,.617.059L10.222,5a.444.444,0,0,1,.558,0l8.577,7.064A.438.438,0,0,0,19.973,12l.93-1.13a.438.438,0,0,0-.062-.617Z" transform="translate(0.001 -2.254)" fill="#fff"/>
</svg>
