<svg xmlns="http://www.w3.org/2000/svg" width="28.861" height="20.164" viewBox="0 0 28.861 20.164">
  <g id="icon3" transform="translate(-5.7 -35.5)">
    <path id="Path_4262" data-name="Path 4262" d="M33.975,37.292H14.1a4.723,4.723,0,1,0,0,5.863h19.87a.584.584,0,0,0,.586-.586V37.845A.557.557,0,0,0,33.975,37.292ZM10.423,43.806a3.583,3.583,0,1,1,3.583-3.583A3.573,3.573,0,0,1,10.423,43.806Z" fill="#fff"/>
    <path id="Path_4263" data-name="Path 4263" d="M16.81,45.4l-1.433,1.629-.717-.717a.576.576,0,0,0-.814.814l1.14,1.14a.6.6,0,0,0,.391.163h.033a.573.573,0,0,0,.423-.2l1.857-2.085a.574.574,0,0,0-.065-.814A.6.6,0,0,0,16.81,45.4Z" transform="translate(-5.377 -6.544)" fill="#fff"/>
    <path id="Path_4264" data-name="Path 4264" d="M29.935,70.192H14.1a4.723,4.723,0,1,0,0,5.863H29.935a.584.584,0,0,0,.586-.586V70.778A.584.584,0,0,0,29.935,70.192ZM10.423,76.739a3.583,3.583,0,1,1,3.583-3.583A3.573,3.573,0,0,1,10.423,76.739Z" transform="translate(0 -22.183)" fill="#fff"/>
    <path id="Path_4265" data-name="Path 4265" d="M18.138,77.746a.57.57,0,0,0-.814,0l-.782.782-.782-.782a.576.576,0,0,0-.814.814l.782.782-.782.782a.57.57,0,0,0,0,.814.551.551,0,0,0,.782,0l.782-.782.782.782a.6.6,0,0,0,.391.163.539.539,0,0,0,.391-.163.57.57,0,0,0,0-.814l-.717-.782.782-.782A.57.57,0,0,0,18.138,77.746Z" transform="translate(-6.119 -28.369)" fill="#fff"/>
  </g>
</svg>
