<svg id="lock-pink" xmlns="http://www.w3.org/2000/svg" width="36.75" height="50.646" viewBox="0 0 36.75 50.646">
  <path id="noun_password_1199277" d="M47.8,23.809h-.521V16.053a12.886,12.886,0,0,0-25.772,0v7.756h-.521a4.969,4.969,0,0,0-4.968,4.968V48.845a4.968,4.968,0,0,0,4.968,4.968H47.8a4.968,4.968,0,0,0,4.968-4.968V28.777A4.969,4.969,0,0,0,47.8,23.809ZM26.372,16.053a8.02,8.02,0,0,1,16.039,0v7.756H26.372ZM36.465,41.07v5.217a2.073,2.073,0,1,1-4.146,0V41.07a4.872,4.872,0,1,1,4.146,0Z" transform="translate(-16.017 -3.167)" fill="#f1114b"/>
</svg>
