<svg id="logo" xmlns="http://www.w3.org/2000/svg" width="171.297" height="76.498" viewBox="0 0 171.297 76.498">
  <g id="Group_7401" data-name="Group 7401" transform="translate(0 12.309)">
    <path id="Path_4186" data-name="Path 4186" d="M93.987,246.387q2.735,2.562,2.735,7.583v16.209H93.342V266.1a8.093,8.093,0,0,1-3.506,3.182,12.26,12.26,0,0,1-5.494,1.143,10.761,10.761,0,0,1-6.962-2.088,7.184,7.184,0,0,1-.174-10.889q2.411-2.038,7.682-2.038h8.3v-1.591a6.705,6.705,0,0,0-1.889-5.146,7.807,7.807,0,0,0-5.519-1.765,14.05,14.05,0,0,0-4.774.82,12.034,12.034,0,0,0-3.928,2.263l-1.591-2.635a14.117,14.117,0,0,1,4.774-2.61,18.577,18.577,0,0,1,5.867-.92Q91.253,243.827,93.987,246.387ZM90.01,266.276a8.167,8.167,0,0,0,3.182-3.953v-4.276h-8.2q-6.713,0-6.712,4.674a4.272,4.272,0,0,0,1.74,3.6,7.916,7.916,0,0,0,4.873,1.318A9.3,9.3,0,0,0,90.01,266.276Z" transform="translate(-74.795 -233.286)" fill="#7f3f8f"/>
    <path id="Path_4187" data-name="Path 4187" d="M129.516,252.538l-6.165,5.668v7.458h-3.53V228.772h3.53v25.01l15.612-14.27h4.375L132.151,250.2l12.231,15.463h-4.326Z" transform="translate(-88.296 -228.772)" fill="#7f3f8f"/>
    <path id="Path_4188" data-name="Path 4188" d="M182.653,258.2H160.776a9.344,9.344,0,0,0,3.132,6.588,10.4,10.4,0,0,0,7.16,2.511,11.278,11.278,0,0,0,4.475-.87,9.768,9.768,0,0,0,3.53-2.561l1.989,2.287a11.2,11.2,0,0,1-4.351,3.182,14.708,14.708,0,0,1-5.743,1.094,14.513,14.513,0,0,1-7.135-1.715,12.356,12.356,0,0,1-4.848-4.748,13.526,13.526,0,0,1-1.741-6.861,14.017,14.017,0,0,1,1.666-6.861,12.072,12.072,0,0,1,4.575-4.724,12.774,12.774,0,0,1,6.539-1.69,12.641,12.641,0,0,1,6.513,1.69,11.99,11.99,0,0,1,4.525,4.7,14.152,14.152,0,0,1,1.64,6.887Zm-18.969-8.925a9.466,9.466,0,0,0-2.908,6.289h18.545a9.472,9.472,0,0,0-2.908-6.289,9.6,9.6,0,0,0-12.729,0Z" transform="translate(-99.518 -233.286)" fill="#7f3f8f"/>
    <path id="Path_4189" data-name="Path 4189" d="M203.267,269.508a13.119,13.119,0,0,1-4.55-2.312l1.591-2.784a13.407,13.407,0,0,0,4.127,2.113,16.4,16.4,0,0,0,5.171.821,9.867,9.867,0,0,0,5.3-1.12,3.557,3.557,0,0,0,1.715-3.157,2.84,2.84,0,0,0-.944-2.262,6.286,6.286,0,0,0-2.387-1.243,34.336,34.336,0,0,0-3.828-.82,43.829,43.829,0,0,1-5.122-1.218,7.531,7.531,0,0,1-3.307-2.113,5.879,5.879,0,0,1-1.367-4.127,6.467,6.467,0,0,1,2.735-5.369q2.734-2.089,7.607-2.089a19.754,19.754,0,0,1,5.072.671,13.954,13.954,0,0,1,4.176,1.765l-1.541,2.834A13.2,13.2,0,0,0,210,246.86a8.937,8.937,0,0,0-5.1,1.193,3.656,3.656,0,0,0-1.715,3.132,3.093,3.093,0,0,0,.97,2.387,5.955,5.955,0,0,0,2.411,1.318,38.946,38.946,0,0,0,3.978.87,45.792,45.792,0,0,1,5.022,1.193,7.376,7.376,0,0,1,3.232,2.039,5.61,5.61,0,0,1,1.343,3.978,6.326,6.326,0,0,1-2.859,5.444q-2.86,2.014-7.931,2.014A20.081,20.081,0,0,1,203.267,269.508Z" transform="translate(-111.954 -233.286)" fill="#f1114b"/>
    <path id="Path_4190" data-name="Path 4190" d="M238.239,233.048a2.443,2.443,0,0,1-.746-1.79,2.388,2.388,0,0,1,.746-1.741,2.5,2.5,0,0,1,1.839-.745,2.548,2.548,0,0,1,1.84.72,2.307,2.307,0,0,1,.746,1.715,2.6,2.6,0,0,1-4.425,1.84Zm.05,6.464h3.53v26.153h-3.53Z" transform="translate(-123.581 -228.772)" fill="#7f3f8f"/>
    <path id="Path_4191" data-name="Path 4191" d="M260.481,268.712a12.5,12.5,0,0,1-4.773-4.748,14.395,14.395,0,0,1,0-13.723,12.338,12.338,0,0,1,4.773-4.724,14.571,14.571,0,0,1,13.623,0,12.175,12.175,0,0,1,4.749,4.724,14.586,14.586,0,0,1,0,13.723,12.331,12.331,0,0,1-4.749,4.748,14.382,14.382,0,0,1-13.623,0Zm11.809-2.684a8.841,8.841,0,0,0,3.456-3.605,12.01,12.01,0,0,0,0-10.641,8.839,8.839,0,0,0-3.456-3.6,10.48,10.48,0,0,0-9.994,0,9,9,0,0,0-3.48,3.6,11.8,11.8,0,0,0,0,10.641,9,9,0,0,0,3.48,3.605,10.485,10.485,0,0,0,9.994,0Z" transform="translate(-128.521 -233.286)" fill="#7f3f8f"/>
  </g>
  <g id="Group_7402" data-name="Group 7402" transform="translate(89.67)">
    <path id="Path_4192" data-name="Path 4192" d="M277.134,218.551a25,25,0,0,0-33.5-1.414,24.868,24.868,0,0,0-40.767,17.127,13.719,13.719,0,0,1,6.325-1.815,19.148,19.148,0,0,1,32.3-9.623l2.14,2.143,2.14-2.143a19.153,19.153,0,0,1,27.083,27.091l-29.223,29.223L221.9,257.4a7.533,7.533,0,0,1-2.688,3.227,10.464,10.464,0,0,1-1.682.952l26.108,26.108,33.5-33.5A25.248,25.248,0,0,0,277.134,218.551Z" transform="translate(-202.869 -211.191)" fill="#f1114b"/>
  </g>
</svg>
