<svg id="mood" xmlns="http://www.w3.org/2000/svg" width="69.379" height="25.522" viewBox="0 0 69.379 25.522">
  <path id="Path_4349" data-name="Path 4349" d="M17.107,52.2A7.788,7.788,0,0,0,10.8,55.5l1.687,1.173a5.62,5.62,0,0,1,9.241,0L23.414,55.5A7.892,7.892,0,0,0,17.107,52.2Z" transform="translate(-4.86 -37.826)" fill="#37c6b3"/>
  <rect id="Rectangle_5475" data-name="Rectangle 5475" width="2.053" height="4.474" transform="translate(7.701 7.261)" fill="#37c6b3"/>
  <rect id="Rectangle_5476" data-name="Rectangle 5476" width="2.053" height="4.474" transform="translate(14.668 7.261)" fill="#37c6b3"/>
  <path id="Path_4350" data-name="Path 4350" d="M59.831,32.6A12.316,12.316,0,0,0,48.61,40.227a12.067,12.067,0,0,0-22.442,0A12.316,12.316,0,0,0,14.948,32.6,12.528,12.528,0,0,0,2.7,45.361,12.528,12.528,0,0,0,14.948,58.122a12.316,12.316,0,0,0,11.221-7.627,12.067,12.067,0,0,0,22.442,0,12.316,12.316,0,0,0,11.221,7.627A12.528,12.528,0,0,0,72.079,45.361,12.48,12.48,0,0,0,59.831,32.6ZM14.948,56.068a10.719,10.719,0,0,1-.073-21.415A10.539,10.539,0,0,1,25.142,45.361C25.142,51.228,20.521,56.068,14.948,56.068Zm22.442,0A10.432,10.432,0,0,1,27.2,45.361,10.432,10.432,0,0,1,37.389,34.653,10.479,10.479,0,0,1,47.583,45.361,10.479,10.479,0,0,1,37.389,56.068Zm22.442,0c-5.574,0-10.194-4.84-10.194-10.707s4.62-10.707,10.194-10.707a10.717,10.717,0,0,1,0,21.415Z" transform="translate(-2.7 -32.6)" fill="#37c6b3"/>
  <path id="Path_4351" data-name="Path 4351" d="M78.307,55.22a5.639,5.639,0,0,1-4.62-2.42L72,53.973a7.677,7.677,0,0,0,12.614,0L83,52.8A5.673,5.673,0,0,1,78.307,55.22Z" transform="translate(-21.176 -37.986)" fill="#37c6b3"/>
  <rect id="Rectangle_5477" data-name="Rectangle 5477" width="2.053" height="4.474" transform="translate(52.657 7.261)" fill="#37c6b3"/>
  <rect id="Rectangle_5478" data-name="Rectangle 5478" width="2.053" height="4.474" transform="translate(59.625 7.261)" fill="#37c6b3"/>
  <rect id="Rectangle_5479" data-name="Rectangle 5479" width="2.053" height="4.474" transform="translate(30.142 7.261)" fill="#37c6b3"/>
  <rect id="Rectangle_5480" data-name="Rectangle 5480" width="2.053" height="4.474" transform="translate(37.11 7.261)" fill="#37c6b3"/>
  <rect id="Rectangle_5481" data-name="Rectangle 5481" width="9.754" height="2.053" transform="translate(29.776 15.475)" fill="#37c6b3"/>
</svg>
