<svg xmlns="http://www.w3.org/2000/svg" width="47.281" height="40.475" viewBox="0 0 47.281 40.475">
  <g id="next" transform="translate(-0.25)">
    <path id="Path_4181" data-name="Path 4181" d="M23.8,78.56a1.442,1.442,0,0,1,2.038-2.038l7.716,7.716a1.407,1.407,0,0,1,0,2.038l-7.716,7.716A1.442,1.442,0,0,1,23.8,91.954l5.241-5.241H1.67a1.456,1.456,0,0,1,0-2.912H29.041Z" transform="translate(0 -65.02)" fill="#fff"/>
    <path id="Path_4182" data-name="Path 4182" d="M80.813,8.881a1.445,1.445,0,1,1-2.184-1.893A19.727,19.727,0,0,1,93.916,0a20.237,20.237,0,0,1,0,40.475,19.727,19.727,0,0,1-15.287-6.988,1.445,1.445,0,1,1,2.184-1.893,17.326,17.326,0,1,0,0-22.712Z" transform="translate(-66.622 0)" fill="#fff"/>
  </g>
</svg>
