<svg xmlns="http://www.w3.org/2000/svg" width="38" height="38" viewBox="0 0 38 38">
  <g id="planet" transform="translate(-170 -541)">
    <circle id="Ellipse_119" data-name="Ellipse 119" cx="19" cy="19" r="19" transform="translate(170 541)" fill="#f1114b"/>
    <g id="Go_to_Web" data-name="Go to Web" transform="translate(178 548.875)">
      <path id="Path_4279" data-name="Path 4279" d="M52.1,27.2h4.149a20.171,20.171,0,0,1,.588,4.487H52.1Z" transform="translate(-40.8 -21.168)" fill="#fff"/>
      <path id="Path_4280" data-name="Path 4280" d="M26,52.1h4.746v4.49H26.668a.074.074,0,0,1-.089-.067,17.913,17.913,0,0,1-.4-2.147c-.059-.479-.093-.959-.132-1.44-.022-.26-.026-.523-.039-.783A.1.1,0,0,1,26,52.1Z" transform="translate(-20.361 -40.667)" fill="#fff"/>
      <path id="Path_4281" data-name="Path 4281" d="M26.1,31.677V31.23c.046-.586.087-1.173.15-1.757a17.047,17.047,0,0,1,.408-2.232.056.056,0,0,1,.065-.054h4.1v4.49Z" transform="translate(-20.439 -21.157)" fill="#fff"/>
      <path id="Path_4282" data-name="Path 4282" d="M56.816,52.11v.434c-.046.588-.089,1.178-.15,1.765a17,17,0,0,1-.41,2.23.056.056,0,0,1-.065.054h-4.1V52.11Z" transform="translate(-40.792 -40.675)" fill="#fff"/>
      <path id="Path_4283" data-name="Path 4283" d="M5.286,27.192a21.615,21.615,0,0,0-.54,4.485H0a2.308,2.308,0,0,1,.02-.369,10.8,10.8,0,0,1,1.136-4.067.087.087,0,0,1,.091-.054H5.286Z" transform="translate(0 -21.157)" fill="#fff"/>
      <path id="Path_4284" data-name="Path 4284" d="M0,52.1H4.746a21.626,21.626,0,0,0,.542,4.49H1.26a.106.106,0,0,1-.111-.069,10.844,10.844,0,0,1-.933-2.707A10.513,10.513,0,0,1,0,52.18Z" transform="translate(0 -40.667)" fill="#fff"/>
      <path id="Path_4285" data-name="Path 4285" d="M80.892,31.688h-4.75A21.533,21.533,0,0,0,75.6,27.2h4.028a.106.106,0,0,1,.111.072,10.8,10.8,0,0,1,1.143,4.273A.61.61,0,0,1,80.892,31.688Z" transform="translate(-59.203 -21.166)" fill="#fff"/>
      <path id="Path_4286" data-name="Path 4286" d="M80.892,52.1c-.017.232-.03.458-.054.681a10.677,10.677,0,0,1-.234,1.375,10.827,10.827,0,0,1-.868,2.386.076.076,0,0,1-.078.052H75.6a21.522,21.522,0,0,0,.542-4.494Z" transform="translate(-59.203 -40.667)" fill="#fff"/>
      <path id="Path_4287" data-name="Path 4287" d="M33.878,82.006a3.108,3.108,0,0,1-1.375-.681,5.793,5.793,0,0,1-1.117-1.256,11.436,11.436,0,0,1-1.36-2.893L30,77.07h3.878Z" transform="translate(-23.493 -60.221)" fill="#fff"/>
      <path id="Path_4288" data-name="Path 4288" d="M52.08,82.006V77.07h3.887l-.048.15a12.363,12.363,0,0,1-.889,2.1,6.819,6.819,0,0,1-1.484,1.932A3.164,3.164,0,0,1,52.08,82.006Z" transform="translate(-40.784 -60.221)" fill="#fff"/>
      <path id="Path_4289" data-name="Path 4289" d="M33.878.17V5.109H30a.075.075,0,0,1,.015-.056,11.994,11.994,0,0,1,1.147-2.59,6.125,6.125,0,0,1,1.4-1.657A3.058,3.058,0,0,1,33.878.17Z" transform="translate(-23.493)" fill="#fff"/>
      <path id="Path_4290" data-name="Path 4290" d="M55.982,5.116H52.1V.18a2.679,2.679,0,0,1,.766.273,4.394,4.394,0,0,1,1.319,1.121,8.96,8.96,0,0,1,1.364,2.358c.152.369.278.748.414,1.123C55.982,5.071,55.982,5.088,55.982,5.116Z" transform="translate(-40.8 -0.008)" fill="#fff"/>
      <path id="Path_4291" data-name="Path 4291" d="M14.2,1.705c-.093.1-.187.2-.278.3a8.539,8.539,0,0,0-1.16,1.69,13.332,13.332,0,0,0-1.019,2.525.1.1,0,0,1-.115.085H7.9A10.953,10.953,0,0,1,14.19,1.69Z" transform="translate(-6.187 -1.19)" fill="#fff"/>
      <path id="Path_4292" data-name="Path 4292" d="M7.89,77h3.735a.1.1,0,0,1,.111.082,13.285,13.285,0,0,0,1.032,2.548,8.216,8.216,0,0,0,1.386,1.924l.033.037a.106.106,0,0,1,0,.028A10.962,10.962,0,0,1,7.89,77Z" transform="translate(-6.179 -60.162)" fill="#fff"/>
      <path id="Path_4293" data-name="Path 4293" d="M69.3,6.351H65.579a.1.1,0,0,1-.115-.085,13.3,13.3,0,0,0-1.019-2.525,8.242,8.242,0,0,0-1.4-1.945A.15.15,0,0,1,63,1.74a10.322,10.322,0,0,1,2.453.987A10.875,10.875,0,0,1,67.6,4.295a11.014,11.014,0,0,1,1.7,2.056Z" transform="translate(-49.336 -1.229)" fill="#fff"/>
      <path id="Path_4294" data-name="Path 4294" d="M63,81.6c.093-.1.187-.2.278-.3a8.531,8.531,0,0,0,1.15-1.67,13.353,13.353,0,0,0,1.03-2.542.1.1,0,0,1,.126-.1H69.29a10.86,10.86,0,0,1-2.713,2.9A10.467,10.467,0,0,1,63,81.6Z" transform="translate(-49.336 -60.156)" fill="#fff"/>
    </g>
  </g>
</svg>
