<svg id="roadmap-bear" xmlns="http://www.w3.org/2000/svg" width="81.12" height="86.748" viewBox="0 0 81.12 86.748">
  <g id="Group_7535" data-name="Group 7535">
    <path id="Path_4322" data-name="Path 4322" d="M49.194,12.6h.087a2.154,2.154,0,0,1,1.31,3.74,2.043,2.043,0,0,1-1.572.522,2.156,2.156,0,0,1-1.485-.7,2.023,2.023,0,0,1-.524-1.565A2.255,2.255,0,0,1,49.194,12.6Z" transform="translate(-3.74 -6.068)"/>
    <path id="Path_4323" data-name="Path 4323" d="M57,12.2h.087a2.205,2.205,0,0,1,2.009,2.261,2.121,2.121,0,0,1-2.183,2A2.205,2.205,0,0,1,54.9,14.2a1.988,1.988,0,0,1,.7-1.478A2.748,2.748,0,0,1,57,12.2Z" transform="translate(-18.441 -6.016)"/>
    <path id="Path_4324" data-name="Path 4324" d="M9.3,45.277c4.891-14.7,19.738-13.48,23.231-12.958.611-.783,1.135-1.565,1.659-2.261,2.358-3.653,3.493-7.74,4.454-11.654.961-3.479,1.747-6.7,3.493-9.132a2.375,2.375,0,0,1-.786-1.044,2.725,2.725,0,0,1,.087-1.478,1.678,1.678,0,0,1,1.31-.957,3.284,3.284,0,0,1,2.445.7,11.165,11.165,0,0,1,4.454-1.3A10.891,10.891,0,0,1,57.16,6.838a1.9,1.9,0,0,1,.349-.435,2.93,2.93,0,0,1,2.271-.609,1.5,1.5,0,0,1,1.048.87A1.733,1.733,0,0,1,60.3,8.838c-.175.087-.262.174-.437.261,4.716,5.392,5.939,14.958,6.55,19.655.087.957.262,1.739.349,2.261.262,1.218.611,2.609,1.223,4.7a9.872,9.872,0,0,0,3.231,0,32.119,32.119,0,0,0,6.463-3.044c2.707-1.478,5.327-2.87,7.249-3.218a1.861,1.861,0,0,1,.349-1.3,1.627,1.627,0,0,1,2.183-.783,1.257,1.257,0,0,1,.611.87,1.227,1.227,0,0,1-.087.957h.262a1.208,1.208,0,0,1,.961.522,1.678,1.678,0,0,1-.437,2,.305.305,0,0,1,.175.087,1.738,1.738,0,0,1,.7.87,1.681,1.681,0,0,1-1.31,1.913,4.27,4.27,0,0,1-1.048.087C87.116,39.451,82.749,43.1,74.1,45.8a17.368,17.368,0,0,1-3.057.7c1.921,6.783,3.843,15.393,2.882,23.046a3.581,3.581,0,0,1,2.358,1.044,2.714,2.714,0,0,1,.349,2.522c-.611,2.435-2.707,2.174-3.668,2.087-.175,0-.437,0-.524-.087-3.93,6.957-8.209,7.914-13.188,8.958a8.2,8.2,0,0,0-1.4.348l-.175,3.3a4.8,4.8,0,0,1,2.795,1.3A2.1,2.1,0,0,1,61,90.761c0,.174-.175.261-.262.348a.786.786,0,0,1-.524.522,1.019,1.019,0,0,1-.873-.174.79.79,0,0,0-.437.087.481.481,0,0,1-.437.261.792.792,0,0,1-.873-.261h-.786a.623.623,0,0,1-.524.261.794.794,0,0,1-.611-.261c-3.581,0-8.035-.261-8.035-.261h-.349L47.2,84.847c-.524,0-1.048-.087-1.572-.087l-.087,6.87H45.2c-3.057.174-5.415.174-7.249.174-6.113,0-6.113-.7-6.2-.957a2.1,2.1,0,0,1,.524-1.739,5.042,5.042,0,0,1,2.795-1.3l-.437-5.131c-3.93-1.218-6.987-2.783-9-4.7-3.581-3.392-6.026-9.653-6.463-16.35H18.82a1.614,1.614,0,0,1-.786-.609.319.319,0,0,1-.087-.261,8.129,8.129,0,0,1-.873.435c.087.087.087.174.175.348a1.771,1.771,0,0,1,0,.957.68.68,0,0,1-.349.348.58.58,0,0,1-.524-.087c-.262-.087-.437-.435-.611-.783a1.1,1.1,0,0,1-.087-.522,3.288,3.288,0,0,1-.961-.087h0a1.326,1.326,0,0,1-.349.87,1.245,1.245,0,0,1-.524.174c-.437-.087-.7-.522-.7-1.131a.521.521,0,0,1,.087-.348C9.388,59.105,7.379,51.191,9.3,45.277ZM46.68,31.363c.524.174,2.183-.783,3.057-1.391a.939.939,0,0,1,.524-.174,3.611,3.611,0,0,1,.786.174h-.087a8.967,8.967,0,0,0,3.057,1.3c.961,0,.786-3.392,0-3.74-.524-.261-2.62,1.044-3.319,1.565a.527.527,0,0,1-.349.087c-.087,0-.262-.087-.349-.087-.786-.609-2.707-2-3.493-1.565C45.457,27.884,45.719,31.015,46.68,31.363Zm.175-13.741h.262a4.142,4.142,0,0,0,3.319-1.652,2.643,2.643,0,0,0,.437.609,4.146,4.146,0,0,0,2.882,1.391h.262a4.161,4.161,0,0,0,4.192-3.914,4.251,4.251,0,0,0-3.93-4.435A4.32,4.32,0,0,0,50.7,11.186a4.224,4.224,0,0,0-3.319-2,4.368,4.368,0,0,0-3.057,1.044,4.115,4.115,0,0,0-1.4,2.87A4.278,4.278,0,0,0,46.854,17.622ZM20.13,51.974h0A30.15,30.15,0,0,1,23.361,43.8c-2.795,1.131-3.319,2-3.406,2.522A31.279,31.279,0,0,0,20.13,51.974Z" transform="translate(-8.562 -5.09)"/>
  </g>
</svg>
