<svg id="sleep-bear" xmlns="http://www.w3.org/2000/svg" width="55" height="40.586" viewBox="0 0 55 40.586">
  <g id="Group_7534" data-name="Group 7534">
    <path id="Path_4319" data-name="Path 4319" d="M59.708,40.694h0a1.39,1.39,0,0,0-1.157.165,2.624,2.624,0,0,0-.991,1.432l-1.046-.165c2.533-8.261,1.157-12.612-1.928-16.908C53.264,23.4,46.1,14.479,33.052,19.546c-5.948,2.258-10.409,6.113-13.989,9.2-.881.771-1.707,1.487-2.478,2.093-.22.165-.606.441-1.046.771a44.493,44.493,0,0,0-4.186,3.249,2.764,2.764,0,0,1,.661.11,2.121,2.121,0,0,1,1.267,1.212,2.056,2.056,0,0,1,.055,1.707,2.2,2.2,0,0,1,1.046.11,2.28,2.28,0,0,1,1.267,1.212,2.424,2.424,0,0,1-1.212,3.139h0a2.235,2.235,0,0,1-1.046.22,2.21,2.21,0,0,1-.826-.165A2.28,2.28,0,0,1,11.3,41.19a2.056,2.056,0,0,1-.055-1.707h-.22a2.21,2.21,0,0,1-.826-.165,2.121,2.121,0,0,1-1.267-1.212c-.055-.165-.11-.386-.165-.551C7.277,39.538,6.341,41.8,6.892,44.164a1.7,1.7,0,0,0-.551-.055,1.168,1.168,0,0,0-1.157,1.046,1.016,1.016,0,0,0,.275.936,1.715,1.715,0,0,0,1.432.5,2.222,2.222,0,0,0,.881-.386c.11.165.165.275.275.441.165.22.275.386.441.606a1.73,1.73,0,0,0-.606.771,1.105,1.105,0,0,0,.055.936,1.211,1.211,0,0,0,.936.661,1.243,1.243,0,0,0,1.212-.33,2.4,2.4,0,0,0,.33-.386l.055-.055c2.148,1.046,4.736.5,7.49-.11.936-.22,1.873-.441,2.809-.606v.441c0,3.415.771,7.766,2.864,9.032v.11c0,.441.275.826.606.826a.625.625,0,0,0,.441-.165.68.68,0,0,0,.22-.441h.22c0,.055,0,.11.055.11a.882.882,0,0,0,.716.551.416.416,0,0,0,.22-.055.5.5,0,0,0,.33-.33,1.062,1.062,0,0,0,0-.716c.055,0,.11-.055.165-.055a1.127,1.127,0,0,0,.551.386.593.593,0,0,0,.441-.11.759.759,0,0,0,0-1.046c0-.055-.055-.055-.11-.11.716-1.212.441-2.919.165-4.681a17.117,17.117,0,0,1-.33-3.249c0-.11.055-.275.055-.441.716.165,1.377.33,2.093.5a26.663,26.663,0,0,0,4.9.936c7.435.5,13.108-.055,16.853-1.542l8.1.771.055-.33C60.644,40.969,60.094,40.8,59.708,40.694Zm-40.645-4.02c-.441-.11-.5-1.652-.5-2.258a.331.331,0,0,0-.055-.22c-.055-.055-.11-.055-.165-.11-.5-.055-1.762-.165-1.817-.5-.11-.5,1.322-2.423,1.652-2.038a5.533,5.533,0,0,1,.441,1.928v-.055a1.1,1.1,0,0,0,.165.441.421.421,0,0,0,.275.11c.551.055,1.542.11,1.6.441C20.826,35.021,19.614,36.839,19.063,36.674Z" transform="translate(-5.165 -18.008)"/>
    <path id="Path_4320" data-name="Path 4320" d="M14.4,53a1.105,1.105,0,0,0,.936-.055A1.243,1.243,0,0,0,16,51.406a1,1,0,0,0-.606-.551,1.074,1.074,0,0,0-.441-.055,1.957,1.957,0,0,0-.551.11,1.243,1.243,0,0,0-.661,1.542A1.286,1.286,0,0,0,14.4,53Z" transform="translate(-8.983 -32.74)"/>
    <path id="Path_4321" data-name="Path 4321" d="M18.8,58.5a1.105,1.105,0,0,0,.936-.055,1.243,1.243,0,0,0,.661-1.542,1,1,0,0,0-.606-.551,1.074,1.074,0,0,0-.441-.055,1.957,1.957,0,0,0-.551.11,1.243,1.243,0,0,0-.661,1.542A1.286,1.286,0,0,0,18.8,58.5Z" transform="translate(-10.96 -35.211)"/>
  </g>
</svg>
