<svg xmlns="http://www.w3.org/2000/svg" width="42.167" height="42.169" viewBox="0 0 42.167 42.169">
  <g id="stress" transform="translate(-5.048 -5.152)">
    <g id="Group_7569" data-name="Group 7569" transform="translate(18.291 31.439)">
      <path id="Path_4356" data-name="Path 4356" d="M48.51,64.153a10.541,10.541,0,0,0-14.9,0l0,0a1.318,1.318,0,0,0,1.864,1.864l0,0a7.9,7.9,0,0,1,11.177,0,1.318,1.318,0,1,0,1.863-1.864Z" transform="translate(-33.217 -61.066)" fill="#37c6b3" fill-rule="evenodd"/>
    </g>
    <g id="Group_7571" data-name="Group 7571" transform="translate(5.048 5.152)">
      <g id="Group_7570" data-name="Group 7570">
        <path id="Path_4357" data-name="Path 4357" d="M41.037,11.33a21.083,21.083,0,1,0,0,29.816A21.077,21.077,0,0,0,41.037,11.33Zm-.188,9.116A2,2,0,0,1,37.2,19.322a9.9,9.9,0,0,1,1.077-3.216c.291-.625.616-1.236.921-1.763.926,1.58,2,3.982,2,4.979A2,2,0,0,1,40.849,20.445ZM27.342,42A15.81,15.81,0,1,1,36.331,14.16a13.654,13.654,0,0,0-1.739,5.162,4.607,4.607,0,0,0,4.6,4.6,4.556,4.556,0,0,0,2.454-.71A14.14,14.14,0,0,1,41.9,25.02,15.817,15.817,0,0,1,27.342,42Z" transform="translate(-5.048 -5.152)" fill="#37c6b3"/>
      </g>
    </g>
    <g id="Group_7572" data-name="Group 7572" transform="translate(31.331 25.037)">
      <path id="Path_4358" data-name="Path 4358" d="M62.258,50.076a1.3,1.3,0,0,1-.008-2.605l3.612-.022h.008a1.3,1.3,0,0,1,.008,2.605l-3.612.022Z" transform="translate(-60.955 -47.449)" fill="#37c6b3"/>
    </g>
    <g id="Group_7573" data-name="Group 7573" transform="translate(15.176 25.037)">
      <path id="Path_4359" data-name="Path 4359" d="M27.894,50.076a1.3,1.3,0,0,1-.008-2.605l3.612-.022h.008a1.3,1.3,0,0,1,.008,2.605l-3.612.022Z" transform="translate(-26.591 -47.449)" fill="#37c6b3"/>
    </g>
  </g>
</svg>
